<?xml version="1.0" encoding="utf-8"?>
<!-- Generator: Adobe Illustrator 22.1.0, SVG Export Plug-In . SVG Version: 6.00 Build 0)  -->
<svg version="1.1" id="Layer_1" xmlns="http://www.w3.org/2000/svg" xmlns:xlink="http://www.w3.org/1999/xlink" x="0px" y="0px"
	 viewBox="0 0 389.4 389.4" style="enable-background:new 0 0 389.4 389.4;" xml:space="preserve">
<style type="text/css">
	.st0{fill:#EFEFEF;}
</style>
<g id="XMLID_1639_">
	<path id="XMLID_1640_" class="st0" d="M264,321.3H125.4l-1.1-8.7c-1.7-13.4-7.9-19.4-18.1-29.2c-0.8-0.7-1.6-1.5-2.3-2.3
		C86.6,264.3,63,241.3,63,186.5c0-35.1,14-67.1,39.3-90.1c24.3-22,57.1-34.1,92.4-34.1s68.1,12.1,92.4,34.1c5.5,5,10.5,10.5,15,16.3
		c2.5,3.3,4.9,6.8,7,10.4c1.1,1.8,2.1,3.6,3.1,5.4c2,3.7,3.7,7.5,5.3,11.3c1.2,2.9,2.2,5.9,3.2,8.9c3.8,12.1,5.7,24.8,5.7,37.8
		c0,22.8-4,41.9-12.3,58.3c-0.5,1-1,1.9-1.5,2.9c-1.5,2.7-3.1,5.3-4.8,7.9c-0.6,0.8-1.1,1.6-1.7,2.4c-2.1,3-4.4,5.8-6.9,8.8
		c-4.6,5.3-9.4,9.9-13.6,14c-0.8,0.8-1.7,1.6-2.5,2.4c-10.2,9.8-16.3,15.7-18,29.3L264,321.3z M142.4,301.3H247
		c4.1-14.9,13-23.5,22.3-32.5c0.8-0.8,1.6-1.5,2.4-2.3c4.1-4,8.4-8.1,12.4-12.8c2.1-2.5,4-4.8,5.8-7.3c0.5-0.6,0.9-1.3,1.4-2
		c1.4-2.1,2.7-4.2,3.9-6.3c0.4-0.8,0.8-1.5,1.2-2.3c6.8-13.5,10.1-29.6,10.1-49.3c0-11-1.6-21.7-4.8-31.8c-0.8-2.5-1.7-5-2.7-7.4
		c-1.3-3.2-2.8-6.4-4.4-9.4c-0.8-1.5-1.7-3-2.6-4.5c-1.8-2.9-3.8-5.8-5.8-8.6c-3.7-4.9-7.9-9.4-12.5-13.6
		c-20.6-18.6-48.6-28.9-79-28.9s-58.4,10.3-79,28.9C94.6,130.4,83,157.1,83,186.5c0,46.3,18.5,64.3,34.8,80.2
		c0.8,0.8,1.5,1.5,2.3,2.2C129.4,278,138.2,286.6,142.4,301.3z"/>
</g>
<g id="XMLID_1643_">
	<g id="XMLID_1644_">
		
			<rect id="XMLID_1645_" x="161.7" y="214.2" transform="matrix(0.8682 -0.4961 0.4961 0.8682 -105.6461 119.2537)" class="st0" width="20" height="88.7"/>
	</g>
	<g id="XMLID_1646_">
		
			<rect id="XMLID_1647_" x="173.4" y="248.5" transform="matrix(0.4961 -0.8682 0.8682 0.4961 -114.7191 319.267)" class="st0" width="88.7" height="20"/>
	</g>
</g>
<g id="XMLID_1648_">
	<g id="XMLID_1649_">
		<rect id="XMLID_1650_" x="184.7" class="st0" width="20" height="40"/>
	</g>
	<g id="XMLID_1651_">
		<rect id="XMLID_1652_" x="344.7" y="140" class="st0" width="35" height="20"/>
	</g>
	<g id="XMLID_1653_">
		<rect id="XMLID_1654_" x="9.7" y="140" class="st0" width="35" height="20"/>
	</g>
	<g id="XMLID_1655_">
		
			<rect id="XMLID_1656_" x="300.6" y="50" transform="matrix(0.7071 -0.7071 0.7071 0.7071 49.7749 240.1195)" class="st0" width="28.3" height="20"/>
	</g>
	<g id="XMLID_1657_">
		
			<rect id="XMLID_1658_" x="64.7" y="45.9" transform="matrix(0.7071 -0.7071 0.7071 0.7071 -20.5678 70.4348)" class="st0" width="20" height="28.3"/>
	</g>
</g>
<path id="XMLID_1661_" class="st0" d="M230.6,389.4h-71.7c-11.6,0-21.1-9.5-21.1-21.1v-16.6c-10.7-1.1-19-10.1-19-21v-44.3h151.9
	v44.3c0,10.9-8.3,19.9-19,21v16.6C251.6,380,242.2,389.4,230.6,389.4z M138.8,306.5v24.3c0,0.6,0.5,1.1,1.1,1.1h17.9v36.5
	c0,0.6,0.5,1.1,1.1,1.1h71.7c0.6,0,1.1-0.5,1.1-1.1v-36.5h17.9c0.6,0,1.1-0.5,1.1-1.1v-24.3H138.8z"/>
</svg>
