<?xml version="1.0" encoding="iso-8859-1"?>
<!-- Generator: Adobe Illustrator 19.0.0, SVG Export Plug-In . SVG Version: 6.00 Build 0)  -->
<svg xmlns="http://www.w3.org/2000/svg" xmlns:xlink="http://www.w3.org/1999/xlink" version="1.1" id="Capa_1" x="0px" y="0px" viewBox="0 0 512 512" style="enable-background:new 0 0 512 512;" xml:space="preserve" width="512px" height="512px">
<g>
	<g>
		<path d="M407.07,377.01c-1.86-1.86-4.44-2.93-7.07-2.93s-5.21,1.069-7.07,2.93c-1.86,1.86-2.93,4.44-2.93,7.07    c0,2.64,1.07,5.21,2.93,7.069c1.86,1.87,4.44,2.931,7.07,2.931s5.21-1.061,7.07-2.931c1.86-1.859,2.93-4.439,2.93-7.069    S408.93,378.87,407.07,377.01z" fill="#FFFFFF"/>
	</g>
</g>
<g>
	<g>
		<path d="M472,0H40C17.944,0,0,17.944,0,40v314.083c0,22.056,17.944,40,40,40h157v50.198c-29.332,2.858-52.333,27.65-52.333,57.719    c0,5.522,4.477,10,10,10h202.667c5.523,0,10-4.478,10-10c0-30.749-24.055-55.972-54.333-57.872v-50.045h46.667    c5.523,0,10-4.478,10-10c0-5.522-4.477-10-10-10H40c-11.028,0-20-8.972-20-20V40c0-11.028,8.972-20,20-20h432    c11.028,0,20,8.972,20,20v314.083c0,11.028-8.972,20-20,20h-34.914c-5.523,0-10,4.478-10,10c0,5.522,4.477,10,10,10H472    c22.056,0,40-17.944,40-40V40C512,17.944,494.056,0,472,0z M217,394.083h76V444h-76V394.083z M309.333,464    c17.494,0,32.265,11.882,36.666,28H166.001c4.4-16.118,19.171-28,36.665-28H309.333z" fill="#FFFFFF"/>
	</g>
</g>
<g>
	<g>
		<path d="M262.07,345.01c-1.86-1.86-4.44-2.93-7.07-2.93c-2.63,0-5.21,1.069-7.07,2.93c-1.86,1.86-2.93,4.44-2.93,7.07    s1.07,5.21,2.93,7.069c1.86,1.87,4.44,2.931,7.07,2.931s5.21-1.061,7.07-2.931c1.86-1.859,2.93-4.439,2.93-7.069    S263.93,346.87,262.07,345.01z" fill="#FFFFFF"/>
	</g>
</g>
<g>
	<g>
		<path d="M248,160.403c-1.146-0.662-2.307-1.27-3.476-1.852c0.08-1.303,0.134-2.613,0.134-3.936    c0-35.055-28.519-63.573-63.573-63.573c-35.055,0-63.574,28.519-63.574,63.573c0,1.323,0.054,2.633,0.134,3.936    c-1.171,0.584-2.333,1.193-3.475,1.853c-30.358,17.527-40.797,56.484-23.27,86.843c8.491,14.705,22.2,25.225,38.602,29.62    c5.478,1.467,11.035,2.193,16.558,2.193c11.016,0,21.888-2.89,31.683-8.545c1.143-0.66,2.251-1.362,3.342-2.083    c1.091,0.721,2.199,1.424,3.342,2.083c9.796,5.656,20.667,8.545,31.683,8.545c5.521,0,11.082-0.727,16.558-2.193    c16.402-4.396,30.112-14.915,38.602-29.621C288.797,216.888,278.358,177.931,248,160.403z M181.085,111.042    c23.301,0,42.387,18.385,43.518,41.41c-15.234-2.008-30.729,1.605-43.486,10.026c-5.665-3.752-11.952-6.616-18.707-8.426    c-8.231-2.205-16.645-2.733-24.843-1.642C138.72,129.404,157.798,111.042,181.085,111.042z M185.843,197.924    c-1.563,0.17-3.149,0.265-4.758,0.265c-1.609,0-3.194-0.094-4.758-0.265c0.638-1.444,1.35-2.865,2.151-4.251    c0.804-1.392,1.69-2.705,2.619-3.974c0.927,1.27,1.798,2.592,2.596,3.974C184.494,195.059,185.205,196.48,185.843,197.924z     M134.679,257.547c-11.243-3.012-20.639-10.222-26.458-20.302c-11.651-20.178-5.272-45.899,14.103-58.392    c5.878,14.197,16.755,25.81,30.425,32.647c-0.417,6.781,0.247,13.658,2.057,20.413c2.205,8.23,5.955,15.782,10.999,22.337    C156.176,259.192,145.207,260.369,134.679,257.547z M161.157,183.673c-1.411,2.444-2.634,4.961-3.699,7.525    c-7.113-4.609-12.8-11.23-16.253-19.055c1.553-0.17,3.114-0.276,4.681-0.276c3.784,0,7.595,0.498,11.348,1.504    c3.018,0.809,5.898,1.929,8.616,3.317C164.16,178.887,162.581,181.207,161.157,183.673z M188.045,226.736    c-1.425,5.317-3.799,10.213-6.96,14.521c-3.162-4.308-5.536-9.204-6.96-14.521c-0.809-3.018-1.278-6.072-1.435-9.12    c2.749,0.365,5.547,0.572,8.395,0.572c2.847,0,5.646-0.207,8.395-0.572C189.323,220.664,188.854,223.718,188.045,226.736z     M216.286,171.895c1.554,0,3.112,0.103,4.668,0.271c-3.454,7.816-9.137,14.428-16.243,19.033    c-1.064-2.565-2.287-5.082-3.698-7.526c-1.41-2.442-2.976-4.757-4.663-6.959C202.511,173.568,209.352,171.895,216.286,171.895z     M253.949,237.246c-5.819,10.08-15.216,17.29-26.458,20.302c-10.53,2.821-21.496,1.643-31.126-3.298    c5.045-6.555,8.794-14.106,10.999-22.337c1.81-6.754,2.474-13.631,2.057-20.413c13.67-6.837,24.547-18.45,30.425-32.647    C259.221,191.345,265.6,217.067,253.949,237.246z" fill="#FFFFFF"/>
	</g>
</g>
<g>
	<g>
		<path d="M422.601,175.083h-46.3v-1.416c0-5.522-4.477-10-10-10s-10,4.478-10,10v1.416H310c-5.523,0-10,4.478-10,10    c0,5.522,4.477,10,10,10h46.301v1.417c0,5.522,4.477,10,10,10s10-4.478,10-10v-1.417h46.3c5.523,0,10-4.478,10-10    C432.601,179.561,428.124,175.083,422.601,175.083z" fill="#FFFFFF"/>
	</g>
</g>
<g>
	<g>
		<path d="M422.602,111.083h-86.935v-1.416c0-5.522-4.477-10-10-10s-10,4.478-10,10v1.416H310c-5.523,0-10,4.478-10,10    c0,5.522,4.477,10,10,10h5.667v1.417c0,5.522,4.477,10,10,10s10-4.478,10-10v-1.417h86.935c5.523,0,10-4.478,10-10    C432.602,115.561,428.125,111.083,422.602,111.083z" fill="#FFFFFF"/>
	</g>
</g>
<g>
	<g>
		<path d="M422.602,239.083h-5.667v-1.416c0-5.522-4.477-10-10-10s-10,4.478-10,10v1.416H310c-5.523,0-10,4.478-10,10    c0,5.522,4.477,10,10,10h86.935v1.417c0,5.522,4.477,10,10,10s10-4.478,10-10v-1.417h5.667c5.523,0,10-4.478,10-10    C432.602,243.561,428.125,239.083,422.602,239.083z" fill="#FFFFFF"/>
	</g>
</g>
<g>
	<g>
		<path d="M462,40.083H50c-5.523,0-10,4.478-10,10v270c0,5.522,4.477,10,10,10h412c5.523,0,10-4.478,10-10v-270    C472,44.561,467.523,40.083,462,40.083z M452,310.083H60v-250h392V310.083z" fill="#FFFFFF"/>
	</g>
</g>
<g>
</g>
<g>
</g>
<g>
</g>
<g>
</g>
<g>
</g>
<g>
</g>
<g>
</g>
<g>
</g>
<g>
</g>
<g>
</g>
<g>
</g>
<g>
</g>
<g>
</g>
<g>
</g>
<g>
</g>
</svg>
