<?xml version="1.0" encoding="utf-8"?>
<!-- Generator: Adobe Illustrator 22.1.0, SVG Export Plug-In . SVG Version: 6.00 Build 0)  -->
<svg version="1.1" id="Layer_1" xmlns="http://www.w3.org/2000/svg" xmlns:xlink="http://www.w3.org/1999/xlink" x="0px" y="0px"
	 viewBox="0 0 512 512" style="enable-background:new 0 0 512 512;" xml:space="preserve">
<style type="text/css">
	.st0{fill:#F4B2B0;}
	.st1{fill:#FE1438;}
</style>
<path class="st0" d="M473.8,322.4L447,300.6c3.3-14.3,5.1-29.3,5.1-44.6c0-15.4-1.8-30.3-5.1-44.6l26.8-21.8
	c8.9-7.2,11.2-19.8,5.5-29.7l-28.4-49.3c-5.7-9.9-17.8-14.2-28.4-10.1l-32.3,12.3c-21.7-20.3-48-35.8-77.2-44.6l-5.5-34.1
	c-1.8-11.3-11.5-19.6-23-19.6h-56.9c-11.4,0-21.2,8.3-23,19.6l-5.4,34.1c-29.2,8.8-55.6,24.3-77.3,44.6l-32.3-12.3
	c-10.7-4.1-22.7,0.2-28.4,10.1L32.7,160c-5.7,9.9-3.4,22.5,5.5,29.7L65,211.4c-3.3,14.3-5.1,29.3-5.1,44.6c0,15.3,1.8,30.3,5.1,44.6
	l-26.8,21.8c-8.9,7.2-11.2,19.8-5.5,29.7l28.5,49.3c5.7,9.9,17.8,14.2,28.4,10.1l32.3-12.3c21.7,20.4,48,35.8,77.3,44.7l5.4,34.1
	c1.8,11.3,11.5,19.6,23,19.6h56.9c11.4,0,21.1-8.3,23-19.6l5.5-34.1c29.2-8.8,55.5-24.3,77.2-44.7l32.3,12.3
	c10.7,4.1,22.7-0.2,28.4-10.1l28.4-49.3C485,342.2,482.7,329.6,473.8,322.4z M256,403.2c-81.3,0-147.2-65.9-147.2-147.2
	S174.7,108.8,256,108.8S403.2,174.7,403.2,256S337.3,403.2,256,403.2z"/>
<g>
	<path class="st1" d="M284.5,512h-56.9c-18.7,0-34.4-13.4-37.4-31.9l-4-25.3c-24.5-8.6-47.5-21.9-67.3-38.9l-23.9,9.1
		c-4.3,1.7-8.9,2.5-13.5,2.5c-13.5,0-26.1-7.3-32.8-18.9l-28.5-49.3c-9.4-16.2-5.6-36.5,8.9-48.3l19.9-16.1
		c-2.4-12.8-3.6-25.8-3.6-38.9c0-13,1.2-26.1,3.6-38.9L29,201c-14.5-11.8-18.3-32.1-8.9-48.3l28.5-49.3
		c6.7-11.7,19.3-18.9,32.8-18.9c4.6,0,9.2,0.8,13.5,2.5l23.9,9.2c19.8-17,42.8-30.3,67.3-38.9l4-25.3c3-18.5,18.7-31.9,37.4-31.9
		h56.9c18.7,0,34.4,13.4,37.4,31.9l4,25.3c24.5,8.6,47.5,21.9,67.3,38.9l23.9-9.2c4.3-1.7,8.9-2.5,13.5-2.5
		c13.5,0,26.1,7.3,32.8,18.9l28.4,49.3c9.4,16.2,5.6,36.5-8.9,48.3l-19.9,16.1c2.4,12.8,3.6,25.8,3.6,38.9s-1.2,26.1-3.6,38.9
		L483,311c14.5,11.8,18.3,32.1,8.9,48.3l-28.4,49.3c-6.7,11.7-19.3,18.9-32.8,18.9c0,0,0,0,0,0c-4.6,0-9.2-0.8-13.5-2.5l-23.9-9.2
		c-19.8,17-42.8,30.3-67.3,38.9l-4,25.3C318.9,498.6,303.2,512,284.5,512z M121.9,384.5c3.7,0,7.2,1.4,10,4
		c20.3,19,45,33.3,71.5,41.3c5.4,1.6,9.3,6.2,10.2,11.7l5.4,34.1c0.7,4.2,4.3,7.3,8.5,7.3h56.9c4.3,0,7.8-3.1,8.5-7.3l5.5-34.1
		c0.9-5.5,4.8-10.1,10.2-11.7c26.5-8,51.2-22.3,71.5-41.3c4.1-3.8,10-5,15.2-3l32.3,12.3c1,0.4,2,0.6,3.1,0.6c3.1,0,5.9-1.7,7.5-4.3
		l28.4-49.3c2.1-3.7,1.3-8.3-2-11L437.8,312c-4.3-3.5-6.3-9.2-5-14.7c3.1-13.4,4.7-27.3,4.7-41.3c0-14-1.6-27.9-4.7-41.3
		c-1.3-5.5,0.7-11.1,5-14.7l26.8-21.8c3.3-2.7,4.2-7.3,2-11L438.1,118c-1.5-2.7-4.4-4.3-7.5-4.3c-1,0-2.1,0.2-3.1,0.6l-32.3,12.3
		c-5.2,2-11.1,0.8-15.2-3c-20.3-19-45-33.3-71.5-41.3c-5.4-1.6-9.3-6.2-10.2-11.7L293,36.5c-0.7-4.2-4.3-7.3-8.5-7.3h-56.9
		c-4.3,0-7.8,3.1-8.5,7.3l-5.4,34.1c-0.9,5.5-4.8,10.1-10.2,11.7c-26.5,8-51.2,22.3-71.5,41.3c-4.1,3.8-10,5-15.2,3l-32.3-12.3
		c-1-0.4-2-0.6-3.1-0.6c-3.1,0-5.9,1.7-7.5,4.3l-28.5,49.3c-2.1,3.7-1.3,8.3,2,11L74.2,200c4.3,3.5,6.3,9.2,5,14.7
		c-3.1,13.5-4.7,27.4-4.7,41.3c0,13.9,1.6,27.8,4.7,41.3c1.3,5.4-0.7,11.1-5,14.7l-26.8,21.8c-3.3,2.7-4.2,7.3-2,11L73.9,394
		c1.5,2.7,4.4,4.3,7.5,4.3c1,0,2.1-0.2,3.1-0.6l32.3-12.3C118.4,384.8,120.1,384.5,121.9,384.5z M256,417.8
		c-89.2,0-161.8-72.6-161.8-161.8S166.8,94.2,256,94.2S417.8,166.8,417.8,256S345.2,417.8,256,417.8z M256,123.4
		c-73.1,0-132.6,59.5-132.6,132.6S182.9,388.6,256,388.6S388.6,329.1,388.6,256S329.1,123.4,256,123.4z"/>
	<path class="st1" d="M261.3,339.5c-2,0-4.1-0.4-6.1-1.3c-7.3-3.4-10.5-12.1-7.2-19.4L295,217l-72.5,33.4l21.9,9.8
		c7.4,3.3,10.7,12,7.4,19.3c-3.3,7.4-11.9,10.7-19.3,7.4l-51.3-23c-5.2-2.3-8.6-7.5-8.6-13.3s3.3-11,8.5-13.4l137.8-63.5
		c5.6-2.6,12.1-1.4,16.5,2.9c4.3,4.3,5.5,10.9,2.9,16.5L274.6,331C272.2,336.4,266.9,339.5,261.3,339.5z"/>
</g>
</svg>
