<?xml version="1.0" encoding="iso-8859-1"?>
<!-- Generator: Adobe Illustrator 19.0.0, SVG Export Plug-In . SVG Version: 6.00 Build 0)  -->
<svg xmlns="http://www.w3.org/2000/svg" xmlns:xlink="http://www.w3.org/1999/xlink" version="1.1" id="Capa_1" x="0px" y="0px" viewBox="0 0 512 512" style="enable-background:new 0 0 512 512;" xml:space="preserve" width="512px" height="512px">
<g>
	<g>
		<path d="M458.183,114.441H53.814c-5.523,0-10,4.477-10,10v207.673c0,5.523,4.477,10,10,10h53.869c0.014,0,0.027,0.003,0.04,0.003    h111.992h184.559c0.014,0,0.028-0.003,0.042-0.003h53.867c5.522,0,10-4.477,10-10V124.441    C468.183,118.918,463.706,114.441,458.183,114.441z M214.717,322.114h-85.143l57.348-66.407l41.531,48.092L214.717,322.114z     M239.717,322.115l18.727-24.97h48.616c5.522,0,10-4.477,10-10s-4.478-10-10-10h-33.616l7.068-9.425h62.964l40.796,54.395H239.717    z M295.512,247.72l16.482-21.977l16.481,21.977H295.512z M448.183,322.114h-38.911l-52.796-70.395l-36.481-48.644    c-1.889-2.518-4.853-4-8-4c-3.147,0-6.111,1.482-8,4l-36.482,48.644l-26.776,35.702l-46.245-53.551    c-1.899-2.2-4.662-3.464-7.568-3.464c-2.906,0-5.669,1.264-7.568,3.464l-76.205,88.243H63.814V134.441h384.369V322.114z" fill="#f71438"/>
	</g>
</g>
<g>
	<g>
		<path d="M475.17,0H36.828C18.625,0,3.815,14.81,3.815,33.014v51.428v264.659c0,18.204,14.81,33.014,33.014,33.014H475.17    c18.204,0,33.014-14.81,33.014-33.014V84.442V33.014C508.183,14.81,493.374,0,475.17,0z M488.183,349.101    c0,7.176-5.838,13.014-13.014,13.014H36.828c-7.176,0-13.014-5.838-13.014-13.014V94.442h464.369V349.101z M488.183,74.442H23.815    V33.014C23.815,25.838,29.653,20,36.828,20h438.341c7.176,0,13.014,5.838,13.014,13.014V74.442z" fill="#f71438"/>
	</g>
</g>
<g>
	<g>
		<path d="M457.869,45.27c-0.13-0.64-0.32-1.27-0.57-1.87c-0.25-0.61-0.56-1.19-0.92-1.73c-0.36-0.55-0.78-1.06-1.24-1.52    c-0.47-0.46-0.979-0.88-1.52-1.24c-0.551-0.36-1.13-0.67-1.73-0.92c-0.6-0.25-1.229-0.45-1.87-0.57c-1.29-0.26-2.62-0.26-3.91,0    c-0.64,0.12-1.27,0.32-1.869,0.57c-0.601,0.25-1.181,0.56-1.721,0.92c-0.55,0.36-1.06,0.78-1.52,1.24    c-0.47,0.46-0.891,0.97-1.25,1.52c-0.36,0.54-0.67,1.12-0.92,1.73c-0.25,0.6-0.44,1.23-0.57,1.87c-0.13,0.64-0.2,1.3-0.2,1.95    c0,0.65,0.07,1.31,0.2,1.96c0.13,0.63,0.32,1.26,0.57,1.87c0.25,0.6,0.56,1.18,0.92,1.72c0.359,0.55,0.78,1.06,1.25,1.52    c0.46,0.46,0.97,0.88,1.52,1.24c0.54,0.37,1.12,0.67,1.721,0.92c0.6,0.25,1.229,0.45,1.869,0.58c0.65,0.13,1.301,0.19,1.96,0.19    c0.65,0,1.311-0.06,1.95-0.19c0.641-0.13,1.271-0.33,1.87-0.58c0.601-0.25,1.18-0.55,1.73-0.92c0.54-0.36,1.05-0.78,1.52-1.24    c0.46-0.46,0.88-0.97,1.24-1.52c0.36-0.54,0.67-1.12,0.92-1.72c0.25-0.61,0.44-1.24,0.57-1.87c0.13-0.65,0.199-1.31,0.199-1.96    C458.068,46.57,457.999,45.91,457.869,45.27z" fill="#f71438"/>
	</g>
</g>
<g>
	<g>
		<path d="M410.763,37.221H217.524c-5.523,0-10,4.477-10,10s4.477,10,10,10h193.239c5.522,0,10-4.477,10-10    S416.286,37.221,410.763,37.221z" fill="#f71438"/>
	</g>
</g>
<g>
	<g>
		<path d="M110.069,45.27c-0.13-0.64-0.32-1.27-0.57-1.87c-0.25-0.61-0.56-1.19-0.92-1.73c-0.36-0.55-0.78-1.06-1.24-1.52    c-0.46-0.46-0.97-0.88-1.52-1.24c-0.54-0.36-1.12-0.67-1.73-0.92c-0.6-0.25-1.23-0.44-1.87-0.57c-1.29-0.26-2.62-0.26-3.91,0    c-0.63,0.13-1.26,0.32-1.87,0.57c-0.6,0.25-1.18,0.56-1.72,0.92c-0.55,0.36-1.06,0.78-1.52,1.24c-0.46,0.46-0.88,0.97-1.25,1.52    c-0.36,0.54-0.67,1.12-0.92,1.73c-0.25,0.6-0.44,1.23-0.57,1.87c-0.13,0.64-0.19,1.3-0.19,1.95c0,0.65,0.06,1.31,0.19,1.95    c0.13,0.64,0.32,1.27,0.57,1.88c0.25,0.6,0.56,1.18,0.92,1.72c0.37,0.55,0.79,1.06,1.25,1.52c0.46,0.46,0.97,0.88,1.52,1.25    c0.54,0.36,1.12,0.67,1.72,0.92c0.61,0.25,1.24,0.44,1.87,0.57c0.65,0.13,1.31,0.19,1.96,0.19c0.65,0,1.31-0.06,1.95-0.19    c0.64-0.13,1.27-0.32,1.87-0.57c0.61-0.25,1.19-0.56,1.73-0.92c0.55-0.37,1.06-0.79,1.52-1.25c0.46-0.46,0.88-0.97,1.24-1.52    c0.36-0.54,0.67-1.12,0.92-1.72c0.25-0.61,0.44-1.24,0.57-1.88c0.13-0.64,0.2-1.3,0.2-1.95    C110.269,46.57,110.199,45.91,110.069,45.27z" fill="#f71438"/>
	</g>
</g>
<g>
	<g>
		<path d="M146.41,45.27c-0.13-0.64-0.32-1.27-0.57-1.87c-0.25-0.61-0.56-1.19-0.92-1.73c-0.37-0.55-0.79-1.06-1.25-1.52    c-0.46-0.46-0.97-0.88-1.52-1.24c-0.54-0.36-1.12-0.67-1.72-0.92c-0.61-0.25-1.24-0.44-1.87-0.57c-1.29-0.26-2.62-0.26-3.91,0    c-0.64,0.13-1.27,0.32-1.87,0.57c-0.61,0.25-1.19,0.56-1.73,0.92c-0.55,0.36-1.06,0.78-1.52,1.24c-0.46,0.46-0.88,0.97-1.24,1.52    c-0.36,0.54-0.67,1.12-0.92,1.73c-0.25,0.6-0.45,1.23-0.57,1.87c-0.13,0.64-0.2,1.3-0.2,1.95c0,0.65,0.07,1.31,0.2,1.95    c0.12,0.64,0.32,1.27,0.57,1.87c0.25,0.61,0.56,1.19,0.92,1.73c0.36,0.55,0.78,1.06,1.24,1.52c0.46,0.46,0.97,0.88,1.52,1.24    c0.54,0.36,1.12,0.67,1.73,0.92c0.6,0.25,1.23,0.45,1.87,0.57c0.64,0.13,1.3,0.2,1.95,0.2c0.65,0,1.31-0.07,1.96-0.2    c0.63-0.12,1.26-0.32,1.87-0.57c0.6-0.25,1.18-0.56,1.72-0.92c0.55-0.36,1.06-0.78,1.52-1.24c0.46-0.46,0.88-0.97,1.25-1.52    c0.36-0.54,0.67-1.12,0.92-1.73c0.25-0.6,0.44-1.23,0.57-1.87c0.13-0.64,0.19-1.3,0.19-1.95    C146.6,46.57,146.54,45.91,146.41,45.27z" fill="#f71438"/>
	</g>
</g>
<g>
	<g>
		<path d="M73.739,45.27c-0.13-0.64-0.32-1.27-0.57-1.87c-0.25-0.61-0.56-1.19-0.92-1.73c-0.37-0.55-0.78-1.06-1.24-1.52    c-2.33-2.32-5.78-3.39-9.03-2.73c-0.64,0.12-1.27,0.32-1.87,0.57c-0.6,0.25-1.18,0.56-1.73,0.92c-0.54,0.36-1.06,0.78-1.52,1.24    c-0.46,0.46-0.88,0.97-1.24,1.52c-0.36,0.54-0.67,1.12-0.92,1.73c-0.25,0.6-0.44,1.23-0.57,1.87c-0.13,0.64-0.2,1.3-0.2,1.95    c0,2.63,1.07,5.21,2.93,7.07c0.46,0.46,0.98,0.88,1.52,1.24c0.55,0.37,1.13,0.67,1.73,0.92c0.6,0.25,1.23,0.45,1.87,0.57    c0.65,0.13,1.3,0.2,1.95,0.2c0.66,0,1.31-0.07,1.96-0.2c0.64-0.12,1.27-0.32,1.87-0.57c0.6-0.25,1.18-0.55,1.73-0.92    c0.54-0.36,1.05-0.78,1.52-1.24c1.86-1.86,2.92-4.44,2.92-7.07C73.929,46.57,73.869,45.91,73.739,45.27z" fill="#f71438"/>
	</g>
</g>
<g>
	<g>
		<path d="M230.585,156c-19.527,0-35.413,15.886-35.413,35.413c0,19.527,15.886,35.414,35.413,35.414    c19.527,0,35.414-15.886,35.414-35.414C265.999,171.886,250.113,156,230.585,156z M230.585,206.827    c-8.499,0-15.413-6.915-15.413-15.414c0-8.499,6.914-15.413,15.413-15.413c8.499,0,15.414,6.914,15.414,15.413    C245.999,199.912,239.084,206.827,230.585,206.827z" fill="#f71438"/>
	</g>
</g>
<g>
	<g>
		<path d="M470.427,394.473h-45.498H83.469h-1.597c-2.097,0-4.142,0.659-5.843,1.885L8.306,445.121    c-2.61,1.879-4.157,4.899-4.157,8.115s1.547,6.236,4.157,8.115l67.723,48.764c1.702,1.226,3.746,1.885,5.843,1.885h1.597h341.46    h45.498c20.634,0,37.421-16.787,37.421-37.421v-42.685C507.848,411.26,491.061,394.473,470.427,394.473z M73.469,483.627    l-42.206-30.391l42.206-30.39V483.627z M414.929,461.954h-224.11c-5.523,0-10,4.477-10,10s4.477,10,10,10h224.11V492H93.469    v-47.481h321.46V461.954z M414.929,424.519H93.469v-10.046h321.46V424.519z M487.848,474.579c0,9.606-7.815,17.421-17.421,17.421    h-35.498v-77.527h35.498c9.605,0,17.421,7.815,17.421,17.421V474.579z" fill="#f71438"/>
	</g>
</g>
<g>
	<g>
		<path d="M162.469,470c-0.13-0.64-0.32-1.27-0.57-1.87c-0.25-0.6-0.56-1.19-0.92-1.73c-0.36-0.54-0.78-1.06-1.24-1.52    c-0.46-0.46-0.97-0.88-1.52-1.24c-0.54-0.36-1.13-0.67-1.73-0.92s-1.23-0.44-1.87-0.57c-1.29-0.26-2.62-0.26-3.91,0    c-0.64,0.13-1.27,0.32-1.87,0.57c-0.6,0.25-1.18,0.56-1.73,0.92c-0.54,0.36-1.05,0.78-1.52,1.24c-0.46,0.46-0.87,0.98-1.24,1.52    c-0.36,0.54-0.67,1.13-0.92,1.73c-0.25,0.6-0.44,1.23-0.57,1.87s-0.19,1.3-0.19,1.95s0.06,1.31,0.19,1.96    c0.13,0.63,0.32,1.26,0.57,1.87c0.25,0.6,0.56,1.18,0.92,1.72c0.37,0.55,0.78,1.06,1.24,1.53c0.47,0.46,0.98,0.87,1.52,1.24    c0.55,0.36,1.13,0.67,1.73,0.92c0.6,0.25,1.23,0.44,1.87,0.57c0.65,0.13,1.31,0.2,1.96,0.2c0.65,0,1.31-0.07,1.95-0.2    s1.27-0.32,1.87-0.57s1.19-0.56,1.73-0.92c0.55-0.37,1.06-0.78,1.52-1.24c0.46-0.47,0.88-0.98,1.24-1.53    c0.36-0.54,0.67-1.12,0.92-1.72c0.25-0.61,0.44-1.24,0.57-1.87c0.13-0.65,0.2-1.31,0.2-1.96    C162.669,471.3,162.599,470.64,162.469,470z" fill="#f71438"/>
	</g>
</g>
<g>
</g>
<g>
</g>
<g>
</g>
<g>
</g>
<g>
</g>
<g>
</g>
<g>
</g>
<g>
</g>
<g>
</g>
<g>
</g>
<g>
</g>
<g>
</g>
<g>
</g>
<g>
</g>
<g>
</g>
</svg>
