<?xml version="1.0" encoding="iso-8859-1"?>
<!-- Generator: Adobe Illustrator 19.0.0, SVG Export Plug-In . SVG Version: 6.00 Build 0)  -->
<svg xmlns="http://www.w3.org/2000/svg" xmlns:xlink="http://www.w3.org/1999/xlink" version="1.1" id="Capa_1" x="0px" y="0px" viewBox="0 0 512 512" style="enable-background:new 0 0 512 512;" xml:space="preserve" width="512px" height="512px">
<g>
	<g>
		<path d="M502,0H10C4.478,0,0,4.477,0,10v368c0,5.523,4.478,10,10,10h48.621c5.522,0,10-4.477,10-10s-4.478-10-10-10H20v-51.833    h472V368H132.899c-5.522,0-10,4.477-10,10s4.478,10,10,10H197v63.938h-42.333c-5.522,0-10,4.477-10,10V502c0,5.523,4.478,10,10,10    h202.666c5.522,0,10-4.477,10-10v-40.063c0-5.523-4.478-10-10-10H313V388h189c5.522,0,10-4.477,10-10V10    C512,4.477,507.522,0,502,0z M217,388h76v63.938h-76V388z M347.333,471.937V492H164.667v-20.063H347.333z M244.692,173.332v64.501    c0,0.294,0.019,0.584,0.044,0.872c-8.53,3.011-15.301,9.771-18.324,18.295h-50.059v-56h20v21.79c0,5.523,4.478,10,10,10    c5.522,0,10-4.477,10-10V191c0-5.523-4.478-10-10-10h-40c-5.522,0-10,4.477-10,10v66h-10.06    c-3.023-8.524-9.794-15.284-18.324-18.295c0.025-0.288,0.044-0.577,0.044-0.872v-64.501c8.509-3.018,15.262-9.771,18.28-18.28    h80.119C229.43,163.561,236.183,170.314,244.692,173.332z M244.691,145.053c0-5.514,4.486-10,10-10c5.514,0,10,4.486,10,10    s-4.486,10-10,10C249.177,155.053,244.691,150.567,244.691,145.053z M118.013,155.053c-5.514,0-10-4.486-10-10s4.486-10,10-10    s10,4.486,10,10S123.527,155.053,118.013,155.053z M226.411,135.052h-80.119c-0.919-2.591-2.185-5.017-3.741-7.227l35.082-49.28    c2.906,0.941,6.003,1.455,9.219,1.455c2.915,0,5.731-0.426,8.398-1.205l34.903,49.03    C228.597,130.035,227.33,132.461,226.411,135.052z M186.853,60c-5.514,0-10-4.486-10-10s4.486-10,10-10c5.514,0,10,4.486,10,10    S192.366,60,186.853,60z M20,296.167V20h166.813c-16.523,0.022-29.959,13.471-29.959,29.999c0,6.043,1.802,11.67,4.888,16.384    l-35.475,49.833c-2.624-0.752-5.391-1.164-8.253-1.164c-16.542,0-30,13.458-30,30c0,13.036,8.361,24.152,20,28.28v64.501    c0,0.294,0.019,0.584,0.044,0.872C96.395,242.821,88.013,253.947,88.013,267c0,14.131,9.823,26.003,22.998,29.167H20z     M108.013,267c0-5.514,4.486-10,10-10s10,4.486,10,10c0,5.514-4.486,10-10,10S108.013,272.514,108.013,267z M125.015,296.167    c9.906-2.379,17.913-9.681,21.277-19.167h80.119c3.365,9.486,11.372,16.788,21.278,19.167H125.015z M244.691,267    c0-5.514,4.487-10,10-10c5.514,0,10,4.486,10,10c0,5.514-4.486,10-10,10C249.177,277,244.691,272.514,244.691,267z     M261.693,296.167c13.175-3.163,22.998-15.036,22.998-29.167c0-13.053-8.382-24.179-20.044-28.295    c0.025-0.288,0.044-0.577,0.044-0.872v-64.501c3.682-1.305,7.034-3.31,9.898-5.854l30.362,113.311    c0.925,3.451,3.62,6.146,7.071,7.071c3.452,0.926,7.133-0.063,9.659-2.588l19.432-19.432l29.199,29.2    c0.42,0.42,0.878,0.792,1.359,1.127H261.693z M348.185,244.626c-1.876-1.875-4.419-2.929-7.071-2.929    c-2.652,0-5.195,1.054-7.071,2.929l-14.255,14.255l-23.903-89.207l89.207,23.903l-14.279,14.279    c-3.907,3.906-3.907,10.237-0.001,14.143l29.2,29.2l-22.628,22.627L348.185,244.626z M492,296.167H383.096    c0.481-0.335,0.939-0.707,1.359-1.127l36.77-36.77c3.905-3.905,3.905-10.237,0-14.142l-29.199-29.2l19.455-19.455    c2.526-2.526,3.513-6.208,2.588-9.66c-0.925-3.451-3.62-6.146-7.071-7.071l-122.329-32.778c0.009-0.304,0.023-0.606,0.023-0.912    c0-16.542-13.458-30-30-30c-2.862,0-5.629,0.411-8.252,1.164l-34.961-49.112c3.383-4.856,5.375-10.751,5.375-17.105    c0-16.528-13.436-29.977-29.959-29.999H492V296.167z" fill="#f71438"/>
	</g>
</g>
<g>
	<g>
		<path d="M102.83,370.93c-1.86-1.86-4.44-2.93-7.07-2.93s-5.21,1.07-7.07,2.93c-1.859,1.86-2.93,4.44-2.93,7.07    s1.07,5.21,2.93,7.07c1.86,1.86,4.44,2.93,7.07,2.93s5.21-1.07,7.07-2.93c1.859-1.86,2.93-4.44,2.93-7.07    S104.69,372.79,102.83,370.93z" fill="#f71438"/>
	</g>
</g>
<g>
	<g>
		<path d="M263.069,335.08c-1.859-1.86-4.439-2.93-7.069-2.93s-5.21,1.07-7.07,2.93s-2.93,4.44-2.93,7.07    c0,2.64,1.069,5.21,2.93,7.07c1.86,1.87,4.44,2.93,7.07,2.93s5.21-1.06,7.069-2.93c1.86-1.86,2.931-4.43,2.931-7.07    C266,339.52,264.93,336.94,263.069,335.08z" fill="#f71438"/>
	</g>
</g>
<g>
</g>
<g>
</g>
<g>
</g>
<g>
</g>
<g>
</g>
<g>
</g>
<g>
</g>
<g>
</g>
<g>
</g>
<g>
</g>
<g>
</g>
<g>
</g>
<g>
</g>
<g>
</g>
<g>
</g>
</svg>
