<?xml version="1.0" encoding="iso-8859-1"?>
<!-- Generator: Adobe Illustrator 19.0.0, SVG Export Plug-In . SVG Version: 6.00 Build 0)  -->
<svg xmlns="http://www.w3.org/2000/svg" xmlns:xlink="http://www.w3.org/1999/xlink" version="1.1" id="Capa_1" x="0px" y="0px" viewBox="0 0 512 512" style="enable-background:new 0 0 512 512;" xml:space="preserve" width="512px" height="512px">
<g>
	<g>
		<path d="M486,492h-10V330c0-5.522-4.478-10-10-10h-60c-5.522,0-10,4.478-10,10v162h-40V210c0-5.522-4.478-10-10-10h-60    c-5.522,0-10,4.478-10,10v282h-40V290c0-5.522-4.478-10-10-10h-60c-5.522,0-10,4.478-10,10v202h-40V150c0-5.522-4.478-10-10-10H46    c-5.522,0-10,4.478-10,10v342H26c-5.522,0-10,4.478-10,10c0,5.522,4.478,10,10,10h460c5.522,0,10-4.478,10-10    C496,496.478,491.522,492,486,492z M96,492H56V160h40V492z M216,492h-40V300h40V492z M336,492h-40V220h40V492z M456,492h-40V340    h40V492z" fill="#f71438"/>
	</g>
</g>
<g>
	<g>
		<path d="M436,180c-7.263,0-14.229,1.929-20.321,5.537l-65.216-65.216C354.071,114.229,356,107.263,356,100    c0-22.056-17.944-40-40-40c-22.056,0-40,17.944-40,40c0,4.523,0.781,8.952,2.245,13.152l-55.568,37.046    C215.428,143.7,205.98,140,196,140c-6.313,0-12.287,1.476-17.602,4.092l-69.619-81.209C113.323,56.393,116,48.506,116,40    c0-22.056-17.944-40-40-40C53.944,0,36,17.944,36,40c0,22.056,17.944,40,40,40c6.313,0,12.287-1.476,17.602-4.092l69.619,81.209    C158.677,163.607,156,171.494,156,180c0,22.056,17.944,40,40,40c22.056,0,40-17.944,40-40c0-4.523-0.781-8.952-2.245-13.152    l55.568-37.046C296.572,136.3,306.02,140,316,140c7.263,0,14.229-1.929,20.321-5.537l65.216,65.216    C397.929,205.771,396,212.737,396,220c0,22.056,17.944,40,40,40c22.056,0,40-17.944,40-40C476,197.944,458.056,180,436,180z     M76,60c-11.028,0-20-8.972-20-20s8.972-20,20-20s20,8.972,20,20S87.028,60,76,60z M196,200c-11.028,0-20-8.972-20-20    s8.972-20,20-20c11.081,0,20,8.999,20,20C216,191.028,207.028,200,196,200z M316,120c-11.081,0-20-8.999-20-20    c0-11.028,8.972-20,20-20s20,8.972,20,20C336,111.046,327.046,120,316,120z M436,240c-11.028,0-20-8.972-20-20    c0-11.046,8.954-20,20-20c11.028,0,20,8.972,20,20S447.028,240,436,240z" fill="#f71438"/>
	</g>
</g>
<g>
</g>
<g>
</g>
<g>
</g>
<g>
</g>
<g>
</g>
<g>
</g>
<g>
</g>
<g>
</g>
<g>
</g>
<g>
</g>
<g>
</g>
<g>
</g>
<g>
</g>
<g>
</g>
<g>
</g>
</svg>
