<?xml version="1.0" encoding="utf-8"?>
<!-- Generator: Adobe Illustrator 22.1.0, SVG Export Plug-In . SVG Version: 6.00 Build 0)  -->
<svg version="1.1" id="Layer_1" xmlns="http://www.w3.org/2000/svg" xmlns:xlink="http://www.w3.org/1999/xlink" x="0px" y="0px"
	 viewBox="0 0 512 512" style="enable-background:new 0 0 512 512;" xml:space="preserve">
<style type="text/css">
	.st0{fill:#EFEFEF;}
</style>
<path class="st0" d="M170.8,233.2c-9.6,0-18.7-3.8-25.5-10.6l-33-33c-4.3,3.7-9.7,5.7-15.5,5.7c-11.9,0-21.8-8.5-23.6-20.2
	L61.3,98.5c-1.1-6.9,0.9-13.9,5.5-19.2C71.3,74,77.9,71,84.9,71c1.2,0,2.5,0.1,3.7,0.3l76.6,11.9c8.9,1.4,16.2,7.6,19,16.2
	c2.6,8,0.9,16.6-4.5,22.9l33,33c14.1,14.1,14.1,37,0,51l-16.4,16.4C189.5,229.5,180.4,233.2,170.8,233.2z M112.3,155.1
	c3.7,0,7.3,1.4,10.1,4.2l43.1,43.1c1.4,1.4,3.3,2.2,5.2,2.2s3.8-0.8,5.2-2.2l16.4-16.4c2.9-2.9,2.9-7.6,0-10.5l-43.1-43.1
	c-2.7-2.7-4.2-6.3-4.2-10.1s1.5-7.5,4.2-10.1l2.1-2.1l-60.7-9.4l9.4,60.7l2.1-2.1C105,156.5,108.6,155.1,112.3,155.1z"/>
<path class="st0" d="M341.2,233.2c-9.6,0-18.7-3.8-25.5-10.6l-16.4-16.4c-14.1-14.1-14.1-37,0-51l33-33c-5.4-6.3-7.2-14.9-4.5-22.9
	c2.8-8.6,10.1-14.8,19-16.2l76.6-11.9c1.2-0.2,2.5-0.3,3.7-0.3c7,0,13.6,3,18.1,8.3s6.5,12.3,5.5,19.2L438.8,175
	c-1.8,11.7-11.8,20.2-23.6,20.2c-5.7,0-11.1-2-15.5-5.7l-33,33C359.9,229.5,350.9,233.2,341.2,233.2z M360.6,110.1l2.1,2.1
	c2.7,2.7,4.2,6.3,4.2,10.1s-1.5,7.5-4.2,10.1l-43.1,43.1c-2.9,2.9-2.9,7.6,0,10.5l16.4,16.4c1.4,1.4,3.3,2.2,5.2,2.2
	s3.8-0.8,5.2-2.2l43.1-43.1c5.6-5.6,14.7-5.6,20.3,0l2.1,2.1l9.4-60.7L360.6,110.1z"/>
<path class="st0" d="M427.2,441L427.2,441c-1.2,0-2.5-0.1-3.7-0.3l-76.6-11.9c-8.9-1.4-16.2-7.6-19-16.2c-2.6-8-0.9-16.6,4.5-22.9
	l-33-33c-14.1-14.1-14.1-37,0-51l16.4-16.4c6.8-6.8,15.9-10.6,25.5-10.6s18.7,3.8,25.5,10.6l33,33c4.3-3.7,9.7-5.7,15.5-5.7
	c11.9,0,21.8,8.5,23.6,20.2l11.9,76.6c1.1,6.9-0.9,13.9-5.5,19.2C440.7,437.9,434.1,441,427.2,441z M360.6,401.9l60.7,9.4l-9.4-60.7
	l-2.1,2.1c-5.6,5.6-14.7,5.6-20.3,0l-43.1-43.1c-1.4-1.4-3.3-2.2-5.2-2.2s-3.8,0.8-5.2,2.2L319.6,326c-2.9,2.9-2.9,7.6,0,10.5
	l43.1,43.1c2.7,2.7,4.2,6.3,4.2,10.1c0,3.8-1.5,7.5-4.2,10.1L360.6,401.9z"/>
<g>
	<path class="st0" d="M84.8,441c-7,0-13.6-3-18.1-8.3s-6.5-12.3-5.5-19.2l11.9-76.6c1.8-11.7,11.8-20.2,23.6-20.2
		c5.7,0,11.1,2,15.5,5.7l33-33c6.8-6.8,15.9-10.6,25.5-10.6s18.7,3.8,25.5,10.6l16.4,16.4c14.1,14.1,14.1,37,0,51l-33,33
		c5.4,6.3,7.2,14.9,4.5,22.9c-2.8,8.6-10.1,14.8-19,16.2l-76.6,11.9C87.3,440.9,86.1,441,84.8,441z M100.1,350.6l-9.4,60.7l60.7-9.4
		l-2.1-2.1c-2.7-2.7-4.2-6.3-4.2-10.1c0-3.8,1.5-7.5,4.2-10.1l43.1-43.1c2.9-2.9,2.9-7.6,0-10.5L176,309.6c-1.4-1.4-3.3-2.2-5.2-2.2
		s-3.8,0.8-5.2,2.2l-43.1,43.1c-5.6,5.6-14.7,5.6-20.3,0L100.1,350.6z"/>
	<path class="st0" d="M438.7,503.8H73.3C32.9,503.8,0,470.9,0,430.5v-349C0,41.1,32.9,8.2,73.3,8.2h365.4
		c40.4,0,73.3,32.9,73.3,73.3v349C512,470.9,479.1,503.8,438.7,503.8z M73.3,36.9c-24.6,0-44.6,20-44.6,44.6v349
		c0,24.6,20,44.6,44.6,44.6h365.4c24.6,0,44.6-20,44.6-44.6v-349c0-24.6-20-44.6-44.6-44.6H73.3z"/>
</g>
</svg>
