<?xml version="1.0" encoding="iso-8859-1"?>
<!-- Generator: Adobe Illustrator 19.0.0, SVG Export Plug-In . SVG Version: 6.00 Build 0)  -->
<svg xmlns="http://www.w3.org/2000/svg" xmlns:xlink="http://www.w3.org/1999/xlink" version="1.1" id="Capa_1" x="0px" y="0px" viewBox="0 0 512 512" style="enable-background:new 0 0 512 512;" xml:space="preserve" width="512px" height="512px">
<g>
	<g>
		<path d="M256,154c-56.243,0-102,45.757-102,102s45.757,102,102,102s102-45.757,102-102C358,199.757,312.243,154,256,154z     M308,319.354C293.839,330.998,275.722,338,256,338s-37.839-7.002-52-18.646v-15.805c0-8.219,5.864-15.277,13.943-16.785    l10.482-1.955c6.928,6.62,16.303,10.699,26.619,10.699h1.912c10.316,0,19.691-4.079,26.619-10.699l10.482,1.955    c8.079,1.508,13.943,8.566,13.943,16.785V319.354z M236.476,256.939v-21.123c0-10.238,8.33-18.568,18.568-18.568h1.912    c10.238,0,18.568,8.33,18.568,18.568v21.123c0,10.238-8.33,18.568-18.568,18.568h-1.912    C244.806,275.507,236.476,267.177,236.476,256.939z M327.303,296.419c-2.871-14.667-14.427-26.49-29.579-29.315l-3.393-0.633    c0.778-3.05,1.194-6.243,1.194-9.531v-21.123c0-21.267-17.301-38.568-38.568-38.568h-1.912c-21.267,0-38.568,17.302-38.568,38.568    v21.123c0,3.289,0.416,6.481,1.194,9.531l-3.394,0.633c-15.152,2.826-26.708,14.648-29.579,29.315    C177.903,284.48,174,270.691,174,256c0-45.215,36.785-82,82-82c45.215,0,82,36.785,82,82    C338,270.691,334.097,284.48,327.303,296.419z" fill="#f71438"/>
	</g>
</g>
<g>
	<g>
		<path d="M462,246h-36v-18.618c0-5.522-4.477-10-10-10h-23.038c-3.028-10.793-7.314-21.146-12.803-30.927l16.285-16.285    c3.905-3.905,3.905-10.237,0-14.143l-40.472-40.472c-3.905-3.904-10.237-3.904-14.143,0l-16.285,16.285    c-9.782-5.489-20.135-9.776-30.927-12.804V96c0-5.522-4.477-10-10-10h-57.235c-5.523,0-10,4.478-10,10v23.083    c-10.774,3.036-21.107,7.326-30.869,12.816l-16.343-16.344c-3.905-3.904-10.237-3.904-14.143,0l-40.472,40.472    c-3.905,3.905-3.905,10.237,0,14.143l16.392,16.392c-5.462,9.751-9.728,20.067-12.745,30.82H96c-5.523,0-10,4.478-10,10V246H50    c-5.523,0-10,4.478-10,10c0,5.522,4.477,10,10,10h36v18.618c0,5.522,4.477,10,10,10h23.249    c3.025,10.733,7.295,21.03,12.757,30.762l-16.45,16.45c-3.905,3.905-3.905,10.237,0,14.143l40.472,40.472    c3.905,3.904,10.237,3.904,14.143,0l16.45-16.45c9.732,5.462,20.03,9.732,30.762,12.757V416c0,5.522,4.477,10,10,10h57.235    c5.523,0,10-4.478,10-10v-23.202c10.751-3.017,21.068-7.283,30.821-12.745l16.392,16.392c3.905,3.904,10.237,3.904,14.143,0    l40.472-40.472c3.903-3.906,3.903-10.238-0.002-14.143L380.1,325.486c5.489-9.762,9.779-20.095,12.816-30.868H416    c5.523,0,10-4.478,10-10V266h36c5.523,0,10-4.478,10-10C472,250.478,467.523,246,462,246z M406,274.619h-20.876    c-4.69-0.001-8.75,3.258-9.764,7.837c-3.09,13.954-8.566,27.142-16.274,39.194c-2.53,3.955-1.967,9.139,1.353,12.459    l14.792,14.792l-26.33,26.329l-14.83-14.83c-3.315-3.315-8.49-3.883-12.444-1.363c-12.052,7.678-25.227,13.125-39.159,16.19    c-4.585,1.009-7.851,5.072-7.851,9.767V406h-37.235v-21.042c0-4.689-3.259-8.75-7.838-9.764c-13.915-3.08-27.07-8.536-39.1-16.215    c-3.955-2.524-9.133-1.96-12.452,1.357l-14.894,14.894l-26.33-26.329l14.894-14.894c3.318-3.318,3.882-8.497,1.358-12.452    c-7.678-12.028-13.134-25.184-16.215-39.1c-1.014-4.579-5.074-7.838-9.764-7.838H106v-37.236h21.006    c4.694,0,8.757-3.266,9.766-7.851c3.067-13.935,8.514-27.109,16.19-39.158c2.519-3.955,1.953-9.129-1.363-12.444l-14.831-14.83    l26.33-26.329l14.792,14.792c3.321,3.319,8.503,3.883,12.459,1.353c12.052-7.709,25.239-13.184,39.194-16.273    c4.579-1.014,7.838-5.073,7.838-9.764V106h37.235v20.841c0,4.694,3.266,8.758,7.851,9.767    c13.971,3.074,27.178,8.541,39.252,16.248c3.956,2.525,9.135,1.961,12.451-1.357l14.729-14.729l26.33,26.329L360.5,177.828    c-3.318,3.318-3.883,8.497-1.358,12.452c7.707,12.072,13.173,25.278,16.249,39.252c1.009,4.585,5.072,7.851,9.766,7.851H406    V274.619z" fill="#f71438"/>
	</g>
</g>
<g>
	<g>
		<path d="M470,428c-19.713,0-36.288,13.655-40.787,32H379.5v-44c0-5.522-4.477-10-10-10s-10,4.478-10,10v54c0,5.522,4.477,10,10,10    h59.713c4.499,18.345,21.075,32,40.787,32c23.159,0,42-18.841,42-42S493.159,428,470,428z M470,492c-12.131,0-22-9.869-22-22    c0-12.131,9.869-22,22-22c12.131,0,22,9.869,22,22C492,482.131,482.131,492,470,492z" fill="#f71438"/>
	</g>
</g>
<g>
	<g>
		<path d="M142.5,32H82.787C78.288,13.655,61.713,0,42,0C18.841,0,0,18.841,0,42s18.841,42,42,42c19.713,0,36.288-13.655,40.787-32    H132.5v44c0,5.522,4.477,10,10,10s10-4.478,10-10V42C152.5,36.478,148.023,32,142.5,32z M42,64c-12.131,0-22-9.869-22-22    s9.869-22,22-22s22,9.869,22,22S54.131,64,42,64z" fill="#f71438"/>
	</g>
</g>
<g>
	<g>
		<path d="M142.5,406c-5.523,0-10,4.478-10,10v44H82.787C78.288,441.655,61.713,428,42,428c-23.159,0-42,18.841-42,42    s18.841,42,42,42c19.713,0,36.288-13.655,40.787-32H142.5c5.523,0,10-4.478,10-10v-54C152.5,410.478,148.023,406,142.5,406z     M42,492c-12.131,0-22-9.869-22-22c0-12.131,9.869-22,22-22s22,9.869,22,22C64,482.131,54.131,492,42,492z" fill="#f71438"/>
	</g>
</g>
<g>
	<g>
		<path d="M470,0c-19.713,0-36.288,13.655-40.787,32H369.5c-5.523,0-10,4.478-10,10v54c0,5.522,4.477,10,10,10s10-4.478,10-10V52    h49.713c4.499,18.345,21.075,32,40.787,32c23.159,0,42-18.841,42-42S493.159,0,470,0z M470,64c-12.131,0-22-9.869-22-22    s9.869-22,22-22c12.131,0,22,9.869,22,22S482.131,64,470,64z" fill="#f71438"/>
	</g>
</g>
<g>
	<g>
		<path d="M509.07,248.93c-1.86-1.86-4.44-2.93-7.07-2.93s-5.21,1.069-7.07,2.93c-1.86,1.86-2.93,4.44-2.93,7.07    s1.07,5.21,2.93,7.069c1.86,1.86,4.44,2.931,7.07,2.931s5.21-1.07,7.07-2.931c1.86-1.859,2.93-4.439,2.93-7.069    S510.93,250.79,509.07,248.93z" fill="#f71438"/>
	</g>
</g>
<g>
	<g>
		<path d="M17.07,248.93C15.21,247.07,12.63,246,10,246s-5.21,1.069-7.07,2.93C1.07,250.79,0,253.37,0,256s1.07,5.21,2.93,7.069    C4.79,264.93,7.37,266,10,266s5.21-1.07,7.07-2.931C18.93,261.21,20,258.63,20,256S18.93,250.79,17.07,248.93z" fill="#f71438"/>
	</g>
</g>
<g>
	<g>
		<path d="M208,32c-5.523,0-10,4.478-10,10s4.477,10,10,10h0.099c5.523,0,9.951-4.478,9.951-10S213.523,32,208,32z" fill="#f71438"/>
	</g>
</g>
<g>
	<g>
		<path d="M255.952,32c-5.523,0-10,4.478-10,10s4.476,10,9.999,10h0.099c5.523,0,9.951-4.478,9.951-10S261.475,32,255.952,32z" fill="#f71438"/>
	</g>
</g>
<g>
	<g>
		<path d="M303.902,32c-5.523,0-10,4.478-10,10s4.476,10,9.999,10H304c5.523,0,9.951-4.478,9.951-10S309.425,32,303.902,32z" fill="#f71438"/>
	</g>
</g>
<g>
	<g>
		<path d="M208,460c-5.523,0-10,4.478-10,10c0,5.522,4.477,10,10,10h0.099c5.523,0,9.951-4.478,9.951-10    C218.05,464.478,213.523,460,208,460z" fill="#f71438"/>
	</g>
</g>
<g>
	<g>
		<path d="M255.951,460c-5.523,0-10,4.478-10,10c0,5.522,4.477,10,10,10h0.099c5.523,0,9.951-4.478,9.951-10    C266.001,464.478,261.474,460,255.951,460z" fill="#f71438"/>
	</g>
</g>
<g>
	<g>
		<path d="M303.901,460c-5.523,0-10,4.478-10,10c0,5.522,4.477,10,10,10H304c5.523,0,9.951-4.478,9.951-10    C313.951,464.478,309.424,460,303.901,460z" fill="#f71438"/>
	</g>
</g>
<g>
</g>
<g>
</g>
<g>
</g>
<g>
</g>
<g>
</g>
<g>
</g>
<g>
</g>
<g>
</g>
<g>
</g>
<g>
</g>
<g>
</g>
<g>
</g>
<g>
</g>
<g>
</g>
<g>
</g>
</svg>
