<?xml version="1.0" encoding="iso-8859-1"?>
<!-- Generator: Adobe Illustrator 19.0.0, SVG Export Plug-In . SVG Version: 6.00 Build 0)  -->
<svg xmlns="http://www.w3.org/2000/svg" xmlns:xlink="http://www.w3.org/1999/xlink" version="1.1" id="Capa_1" x="0px" y="0px" viewBox="0 0 512.001 512.001" style="enable-background:new 0 0 512.001 512.001;" xml:space="preserve" width="512px" height="512px">
<g>
	<g>
		<path d="M471.501,0h-155c-22.332,0-40.5,18.168-40.5,40.5v126c0,22.332,18.168,40.5,40.5,40.5h44.41l25.338,32.186    c1.896,2.409,4.792,3.814,7.857,3.814c0.006,0,0.012,0,0.018,0c3.072-0.006,5.971-1.422,7.862-3.843L427.113,207h44.388    c22.332,0,40.5-18.168,40.5-40.5v-126C512,18.168,493.833,0,471.501,0z M471.501,187h-49.265c-3.078,0-5.984,1.417-7.88,3.843    l-20.279,25.954l-20.455-25.982c-1.896-2.409-4.792-3.814-7.857-3.814H316.5c-11.304,0-20.5-9.196-20.5-20.5v-126    c0-11.304,9.196-20.5,20.5-20.5h155c11.304,0,20.5,9.196,20.5,20.5V166.5h0.001C492.001,177.804,482.805,187,471.501,187z" fill="#FFFFFF"/>
	</g>
</g>
<g>
	<g>
		<path d="M233.071,99.93c-1.86-1.86-4.44-2.93-7.07-2.93c-2.63,0-5.21,1.07-7.07,2.93c-1.86,1.86-2.93,4.44-2.93,7.07    s1.07,5.21,2.93,7.07s4.44,2.93,7.07,2.93s5.21-1.07,7.07-2.93c1.86-1.86,2.93-4.44,2.93-7.07S234.931,101.79,233.071,99.93z" fill="#FFFFFF"/>
	</g>
</g>
<g>
	<g>
		<path d="M226.001,74c5.523,0,10-4.477,10-10V40.5c0-22.332-18.168-40.5-40.5-40.5h-155c-22.332,0-40.5,18.168-40.5,40.5v126    c0,22.332,18.168,40.5,40.5,40.5h44.41l25.338,32.186c1.897,2.409,4.793,3.814,7.858,3.814c0.006,0,0.012,0,0.018,0    c3.072-0.006,5.971-1.422,7.862-3.843L151.113,207h44.388c22.332,0,40.5-18.168,40.5-40.5v-22.417c0-5.523-4.477-10-10-10    c-5.523,0-10,4.477-10,10V166.5c0,11.304-9.196,20.5-20.5,20.5h-49.265c-3.078,0-5.984,1.417-7.88,3.843l-20.279,25.954    l-20.455-25.982c-1.896-2.409-4.792-3.814-7.857-3.814H40.5c-11.304,0-20.5-9.196-20.5-20.5v-126c0-11.304,9.196-20.5,20.5-20.5    h155c11.304,0,20.5,9.196,20.5,20.5V64C216.001,69.523,220.478,74,226.001,74z" fill="#FFFFFF"/>
	</g>
</g>
<g>
	<g>
		<path d="M424.469,389.536c0-14.04-8.952-26.026-21.447-30.557c2.167-4.351,3.392-9.25,3.392-14.432    c0-17.917-14.576-32.493-32.493-32.493h-65.316l8.74-25.947c4.342-12.893,3.305-26.653-2.921-38.749    c-6.227-12.095-16.823-20.936-29.839-24.893l-12.173-3.701c-5.092-1.547-10.502,1.161-12.313,6.165l-19.128,52.867    c-5.174,14.299-15.378,26.179-28.733,33.451l-12.318,6.707c-1.566-3.476-5.054-5.9-9.114-5.9h-93.27c-5.523,0-10,4.478-10,10V502    c0,5.522,4.477,10,10,10h93.271c5.208,0,9.482-3.982,9.953-9.067l3.807,1.493c12.816,5.026,26.295,7.575,40.063,7.575h113.605    c17.917,0,32.493-14.576,32.493-32.493c0-5.254-1.261-10.216-3.484-14.611c12.244-4.661,20.969-16.515,20.969-30.375    c0-5.415-1.339-10.521-3.691-15.015C416.227,414.589,424.469,403.008,424.469,389.536z M180.807,492h-73.271V332.055h30.75    v102.083c0,5.522,4.477,10,10,10s10-4.478,10-10V332.055h22.521V492z M391.973,402.027H375.72h-47.477c-5.523,0-10,4.478-10,10    c0,5.522,4.477,10,10,10h47.477c6.889,0,12.493,5.604,12.493,12.493c0,6.889-5.604,12.496-12.493,12.496h-47.477    c-5.523,0-10,4.478-10,10c0,5.522,4.477,10,10,10h29.992c6.889,0,12.493,5.604,12.493,12.493c0,6.889-5.604,12.493-12.493,12.493    H244.63c-11.259,0-22.281-2.084-32.761-6.194l-11.063-4.339V340.244l20.996-11.433c17.651-9.612,31.137-25.313,37.975-44.211    l15.898-43.94l3.091,0.939c7.796,2.371,14.145,7.667,17.874,14.912c3.73,7.246,4.351,15.489,1.75,23.21l-13.183,39.14    c-1.028,3.052-0.523,6.412,1.355,9.026c1.879,2.615,4.902,4.166,8.122,4.166h79.236c6.889,0,12.493,5.604,12.493,12.493    c0,6.889-5.604,12.493-12.493,12.493h-45.678c-5.523,0-10,4.478-10,10c0,5.522,4.477,10,10,10l63.731,0.002    c6.889,0,12.494,5.604,12.494,12.493C404.466,396.423,398.862,402.027,391.973,402.027z" fill="#FFFFFF"/>
	</g>
</g>
<g>
	<g>
		<path d="M148.285,454.414c-5.523,0-10,4.478-10,10v0.132c0,5.522,4.477,10,10,10c5.523,0,10-4.478,10-10v-0.132    C158.285,458.892,153.807,454.414,148.285,454.414z" fill="#FFFFFF"/>
	</g>
</g>
<g>
	<g>
		<path d="M141.917,74h3.25c5.523,0,10-4.477,10-10s-4.477-10-10-10h-3.25c-17.507,0-31.75,14.243-31.75,31.75v8.284    c-5.21,0.345-9.333,4.668-9.333,9.966c0,5.298,4.123,9.622,9.333,9.966v30.117c0,5.523,4.477,10,10,10s10-4.477,10-10V114h12    c5.523,0,10-4.477,10-10s-4.477-10-10-10h-12v-8.25C130.167,79.271,135.438,74,141.917,74z" fill="#FFFFFF"/>
	</g>
</g>
<g>
	<g>
		<path d="M461.977,57.586c-1.848-2.83-4.998-4.537-8.376-4.537l-9.567-0.001c-5.961-4.806-13.474-7.495-21.213-7.495    c-15.753,0-29.021,10.846-32.728,25.462c-11.807-5.098-22.204-12.958-30.514-23.145c-2.07-2.537-5.249-3.906-8.517-3.649    c-3.266,0.251-6.201,2.086-7.857,4.911c-3.731,6.361-5.703,13.664-5.703,21.12c0,5.325,1.001,10.502,2.881,15.304    c-1.963,1.866-3.111,4.477-3.111,7.249v0.389c0,12.907,6.128,26.723,15.973,35.801c-3.114,0.403-6.274,0.427-9.54,0.063    c-4.613-0.513-8.979,2.222-10.53,6.602c-1.55,4.379,0.12,9.25,4.031,11.757c12.506,8.015,26.976,12.251,41.845,12.251    c22.755,0,43.243-9.025,57.69-25.413c12.655-14.355,19.913-33.374,19.913-52.181c0-0.078-0.001-0.157-0.003-0.235l-0.02-0.852    l6.123-13.909C464.115,63.986,463.823,60.415,461.977,57.586z M437.428,74.966c-0.591,1.342-0.879,2.797-0.845,4.264l0.069,2.954    c-0.054,23.649-17.545,56.757-56.322,57.471c1.23-0.82,2.434-1.691,3.611-2.611c3.361-2.628,4.685-7.101,3.294-11.135    c-1.39-4.034-5.188-6.742-9.455-6.742c-7.167,0-13.142-5.629-16.761-12.392c0.142,0.005,0.284,0.009,0.425,0.013    c4.442,0.12,8.445-2.733,9.789-6.98c1.344-4.248-0.284-8.872-3.993-11.341c-4.904-3.265-8.219-8.306-9.331-13.974    c11.373,9.458,24.673,16.266,39.234,19.998c4.59,1.176,9.412-1.107,11.499-5.36c1.003-2.044,1.278-4.369,0.781-6.59    c-0.245-1.095-0.364-2.15-0.364-3.228c0-7.587,6.172-13.76,13.759-13.76c3.792,0,7.447,1.579,10.027,4.332    c1.475,1.574,3.406,2.617,5.497,3L437.428,74.966z" fill="#FFFFFF"/>
	</g>
</g>
<g>
</g>
<g>
</g>
<g>
</g>
<g>
</g>
<g>
</g>
<g>
</g>
<g>
</g>
<g>
</g>
<g>
</g>
<g>
</g>
<g>
</g>
<g>
</g>
<g>
</g>
<g>
</g>
<g>
</g>
</svg>
