<?xml version="1.0" encoding="utf-8"?>
<!-- Generator: Adobe Illustrator 22.1.0, SVG Export Plug-In . SVG Version: 6.00 Build 0)  -->
<svg version="1.1" id="Layer_1" xmlns="http://www.w3.org/2000/svg" xmlns:xlink="http://www.w3.org/1999/xlink" x="0px" y="0px"
	 viewBox="0 0 512 512" style="enable-background:new 0 0 512 512;" xml:space="preserve">
<style type="text/css">
	.st0{fill:#EFEFEF;}
</style>
<path class="st0" d="M260.9,229.5h-63.4c-8,0-14.4-6.5-14.4-14.4v-64c0-8,6.5-14.4,14.4-14.4S212,143,212,151v49.6h48.9
	c8,0,14.4,6.5,14.4,14.4C275.4,223,268.9,229.5,260.9,229.5z"/>
<path class="st0" d="M229.3,69.4h-64.8c-19.1,0-34.7-15.6-34.7-34.7S145.4,0,164.5,0h64.8C248.4,0,264,15.6,264,34.7
	S248.4,69.4,229.3,69.4z M164.5,28.9c-3.2,0-5.8,2.7-5.8,5.8s2.7,5.8,5.8,5.8h64.8c3.2,0,5.8-2.7,5.8-5.8s-2.7-5.8-5.8-5.8
	C229.3,28.9,164.5,28.9,164.5,28.9z"/>
<g>
	<path class="st0" d="M345.6,512c-76.3,0-138.4-62.1-138.4-138.4s62.1-138.4,138.4-138.4S484,297.3,484,373.6S421.9,512,345.6,512z
		 M345.6,264.1c-60.4,0-109.5,49.1-109.5,109.5s49.1,109.5,109.5,109.5S455.1,434,455.1,373.6S406,264.1,345.6,264.1z"/>
	<path class="st0" d="M160.6,379.6c-1.1,0-2.3-0.1-3.4-0.4c-36.2-8.7-69-29.6-92.4-58.9C41.1,290.6,28,253.2,28,215.1
		C28,122,103.8,46.2,196.9,46.2c40.2,0,79.1,14.4,109.6,40.5c30.2,25.8,50.4,61.4,56.9,100.4c1.3,7.9-4,15.3-11.9,16.6
		s-15.3-4-16.6-11.9c-11.3-67.6-69.3-116.7-138-116.7c-77.2,0-140,62.8-140,140c0,64.9,44,120.9,107.1,136.1
		c7.8,1.9,12.5,9.7,10.7,17.4C173.1,375.2,167.2,379.6,160.6,379.6z"/>
	<path class="st0" d="M340.7,427.9c-20.7-0.7-37.7-11.4-37.7-22.5c0-5.9,5.2-14.5,11.7-14.5c7.3,0,13.1,10.2,25.9,12.4v-28
		c-15.9-6-34.5-13.5-34.5-35.6c0-21.9,16.2-32.5,34.5-35.1v-4.8c0-2.4,2.8-4.7,6.6-4.7c3.3,0,6.6,2.2,6.6,4.7v4.3
		c10.7,0.3,30.9,3.1,30.9,15c0,4.7-3.1,14.2-10.7,14.2c-5.7,0-9-5.5-20.2-6.4v25.2c15.7,5.9,34,14,34,37.3c0,21.4-13.8,34.4-34,37.7
		v5c0,2.4-3.3,4.7-6.6,4.7c-3.8,0-6.6-2.2-6.6-4.7L340.7,427.9L340.7,427.9z M342.4,348.1v-20.6c-7.8,1.6-11.1,5.5-11.1,9.7
		C331.3,342.2,335.8,345.3,342.4,348.1z M352.1,380.1v23.1c5.9-1.4,10.5-4.7,10.5-10.9C362.6,386.6,358.3,383,352.1,380.1z"/>
	<path class="st0" d="M299.2,113.8c-3.7,0-7.4-1.4-10.2-4.2c-5.6-5.6-5.6-14.8,0-20.4L314.1,64c5.6-5.6,14.8-5.6,20.4,0
		s5.6,14.8,0,20.4l-25.1,25.1C306.5,112.4,302.8,113.8,299.2,113.8z"/>
</g>
</svg>
