<?xml version="1.0" encoding="utf-8"?>
<!-- Generator: Adobe Illustrator 22.1.0, SVG Export Plug-In . SVG Version: 6.00 Build 0)  -->
<svg version="1.1" id="Layer_1" xmlns="http://www.w3.org/2000/svg" xmlns:xlink="http://www.w3.org/1999/xlink" x="0px" y="0px"
	 viewBox="0 0 512 512" style="enable-background:new 0 0 512 512;" xml:space="preserve">
<style type="text/css">
	.st0{fill:#FE1438;}
	.st1{fill:#F4B2B0;}
</style>
<g>
	<path class="st0" d="M407.5,512H112.9c-37.4,0-67.8-30.4-67.8-67.8V67.8C45.2,30.4,75.6,0,112.9,0h294.5
		c32.7,0,59.4,26.6,59.4,59.4v205.9c0,8.3-6.7,15.1-15.1,15.1s-15.1-6.7-15.1-15.1V59.4c0-16.1-13.1-29.2-29.2-29.2H112.9
		c-20.8,0-37.6,16.9-37.6,37.6v376.5c0,20.8,16.9,37.6,37.6,37.6h294.5c16.1,0,29.2-13.1,29.2-29.2v-106c0-8.3,6.7-15.1,15.1-15.1
		s15.1,6.7,15.1,15.1v106C466.8,485.4,440.2,512,407.5,512z"/>
	<path class="st0" d="M309.5,346.6H204.1c-8.3,0-15.1-6.7-15.1-15.1s6.7-15.1,15.1-15.1h105.4c8.3,0,15.1,6.7,15.1,15.1
		S317.8,346.6,309.5,346.6z"/>
	<path class="st0" d="M294.4,428.7h-75.3c-8.3,0-15.1-6.7-15.1-15.1s6.7-15.1,15.1-15.1h75.3c8.3,0,15.1,6.7,15.1,15.1
		C309.5,421.9,302.8,428.7,294.4,428.7z"/>
	<path class="st0" d="M308.5,280.6c-3.4,0-6.8-0.8-10-2.4c-7.5-3.8-12.1-11.4-12.1-19.7V115.8c0-8.3,6.7-15.1,15.1-15.1
		s15.1,6.7,15.1,15.1v126.9l17.5-12.9c7.8-5.8,18.4-5.8,26.3,0l17.5,12.9V19.5c0-8.3,6.7-15.1,15.1-15.1s15.1,6.7,15.1,15.1v238.9
		c0,8.4-4.7,16-12.1,19.7c-7.5,3.8-16.3,3-23.1-1.9l-25.5-18.8l-25.5,18.8C317.7,279.1,313.1,280.6,308.5,280.6z"/>
</g>
<path class="st1" d="M301.4,114.6H174c-8.7,0-15.7,7-15.7,15.7v71.1c0,8.7,7,15.7,15.7,15.7h127.4V114.6z"/>
<path class="st0" d="M301.4,232.2H174c-17,0-30.8-13.8-30.8-30.8v-71.1c0-17,13.8-30.8,30.8-30.8h127.4c8.3,0,15.1,6.7,15.1,15.1
	v102.5C316.5,225.5,309.8,232.2,301.4,232.2z M174,129.7c-0.4,0-0.6,0.3-0.6,0.6v71.1c0,0.4,0.3,0.6,0.6,0.6h112.4v-72.4H174z"/>
</svg>
