<?xml version="1.0" encoding="utf-8"?>
<!-- Generator: Adobe Illustrator 22.1.0, SVG Export Plug-In . SVG Version: 6.00 Build 0)  -->
<svg version="1.1" id="Layer_1" xmlns="http://www.w3.org/2000/svg" xmlns:xlink="http://www.w3.org/1999/xlink" x="0px" y="0px"
	 viewBox="0 0 512 512" style="enable-background:new 0 0 512 512;" xml:space="preserve">
<style type="text/css">
	.st0{fill:#F4B2B0;}
	.st1{fill:#FE1438;}
</style>
<path class="st0" d="M260.2,15.2v65.1c-9.2-5-19.9-7.7-31.3-7.1c-29.7,1.4-54.1,25.3-56.1,55c-2.4,34.6,25,63.4,59.1,63.4
	c10.2,0,19.9-2.6,28.3-7.2v65.1h59.9c-1.8-6.7-2.4-13.8-1.7-21.2c2.9-28.7,26.5-51.4,55.3-53.1c34.4-2.1,62.9,25.2,62.9,59.1
	c0,5.3-0.7,10.3-2,15.2h59.9V70.7c0-30.7-24.9-55.5-55.5-55.5C439,15.2,260.2,15.2,260.2,15.2z"/>
<g>
	<path class="st1" d="M494.5,264.6h-59.9c-4.7,0-9.2-2.2-12-5.9c-2.9-3.7-3.9-8.6-2.6-13.1c1-3.7,1.5-7.5,1.5-11.3
		c0-24.3-19.8-44-44-44c-0.9,0-1.8,0-2.7,0.1c-21.3,1.3-39,18.3-41.1,39.5c-0.5,5-0.2,10.1,1,14.9c0.5,1.5,0.7,3.1,0.7,4.7
		c0,8.4-6.8,15.2-15.2,15.2c0,0,0,0,0,0h-59.9c-8.4,0-15.2-6.8-15.2-15.2v-43.9c-4.3,0.8-8.7,1.2-13.1,1.2
		c-20.5,0-40.4-8.6-54.4-23.6c-14.2-15.2-21.3-35.1-19.8-56c2.6-37.6,32.9-67.3,70.5-69.1c5.7-0.3,11.3,0.1,16.8,1.1V15.2
		c0-8.4,6.8-15.2,15.2-15.2H439c39,0,70.7,31.7,70.7,70.7v178.7C509.7,257.8,502.9,264.6,494.5,264.6z M451.8,234.3h27.5V70.7
		c0-22.2-18.1-40.3-40.3-40.3H275.4v49.9c0,5.4-2.8,10.3-7.4,13.1s-10.3,2.8-15,0.3c-7-3.8-15.1-5.7-23.2-5.3
		c-21.9,1.1-40.2,19-41.7,40.8c-0.9,12.4,3.3,24.2,11.7,33.2c8.4,9,19.9,14,32.2,14c7.3,0,14.6-1.8,21-5.3c4.7-2.6,10.4-2.5,15,0.3
		s7.4,7.7,7.4,13.1v49.9h27.5c0-2.5,0.1-5,0.4-7.5c3.6-35.9,33.4-64.6,69.5-66.8c1.5-0.1,3.1-0.1,4.6-0.1
		C418.4,159.8,451.8,193.2,451.8,234.3C451.8,234.3,451.8,234.3,451.8,234.3z"/>
	<path class="st1" d="M134.7,352.1c-1.8,0-3.5-0.1-5.3-0.2c-37.6-2.6-67.3-32.9-69.1-70.5c-0.7-13.7,2.4-27.3,8.9-39.3
		c4-7.4,13.2-10.1,20.6-6.1c7.4,4,10.1,13.2,6.1,20.6c-3.8,7.1-5.7,15.1-5.3,23.2c1.1,21.9,19,40.2,40.8,41.7
		c12.4,0.9,24.2-3.3,33.2-11.7c9-8.4,14-19.9,14-32.2c0-7.3-1.8-14.6-5.3-21c-4-7.4-1.3-16.6,6.1-20.6c7.4-4,16.6-1.3,20.6,6.1
		c5.9,10.8,9,23.1,9,35.5c0,20.5-8.6,40.4-23.6,54.4C171.5,345.1,153.6,352.1,134.7,352.1z"/>
	<path class="st1" d="M82.6,264.6H17.5c-8.4,0-15.2-6.8-15.2-15.2V70.7C2.3,31.7,34,0,73,0h193.9c8.4,0,15.2,6.8,15.2,15.2
		s-6.8,15.2-15.2,15.2H73c-22.2,0-40.3,18.1-40.3,40.3v163.5h49.9c8.4,0,15.2,6.8,15.2,15.2C97.8,257.8,91,264.6,82.6,264.6z"/>
	<path class="st1" d="M261.1,512H73c-39,0-70.7-31.7-70.7-70.7V247.4c0-8.4,6.8-15.2,15.2-15.2s15.2,6.8,15.2,15.2v193.9
		c0,22.2,18.1,40.3,40.3,40.3h172.9v-49.9c0-5.4,2.8-10.3,7.4-13.1c4.6-2.7,10.3-2.8,15-0.3c7.1,3.8,15.1,5.7,23.2,5.3
		c21.9-1.1,40.2-19,41.7-40.8c0.9-12.4-3.3-24.2-11.7-33.2c-8.4-9-19.9-14-32.2-14c-7.3,0-14.6,1.8-21,5.3c-7.4,4-16.6,1.3-20.6-6.1
		c-4-7.4-1.3-16.6,6.1-20.6c10.8-5.9,23.1-9,35.5-9c20.5,0,40.4,8.6,54.4,23.6c14.2,15.2,21.3,35.1,19.8,56
		c-2.6,37.6-32.9,67.3-70.5,69.1c-5.7,0.3-11.3-0.1-16.8-1.1v43.9C276.3,505.2,269.5,512,261.1,512z"/>
</g>
</svg>
