<?xml version="1.0" encoding="utf-8"?>
<!-- Generator: Adobe Illustrator 22.1.0, SVG Export Plug-In . SVG Version: 6.00 Build 0)  -->
<svg version="1.1" id="Layer_1" xmlns="http://www.w3.org/2000/svg" xmlns:xlink="http://www.w3.org/1999/xlink" x="0px" y="0px"
	 viewBox="0 0 303.6 303.6" style="enable-background:new 0 0 303.6 303.6;" xml:space="preserve">
<style type="text/css">
	.st0{fill:#FE1438;}
	.st1{fill:#302C58;}
	.st2{fill:#001243;}
	.st3{fill:#222051;}
</style>
<path class="st0" d="M296.4,20.7H265c-4,0-7.3,3.3-7.3,7.3v31.7c0,4,3.3,7.3,7.3,7.3h7.8c-6.7,38-30.7,69.5-62.9,84.6L172.7,112
	c0,0-0.1,0-0.1,0c-0.4-0.4-0.9-0.8-1.4-1.1c-0.2-0.1-0.3-0.2-0.5-0.3c-0.5-0.2-0.9-0.4-1.4-0.5c-0.1,0-0.2-0.1-0.3-0.1
	c-0.5-0.1-1-0.1-1.5-0.1c-0.1,0-0.2,0-0.3,0c-0.2,0-0.4,0-0.6,0c-0.6,0.1-1.1,0.2-1.6,0.4c-0.1,0-0.1,0-0.2,0c0,0,0,0-0.1,0
	c-0.5,0.2-0.9,0.4-1.3,0.7c-0.1,0.1-0.3,0.2-0.4,0.3c-0.3,0.2-0.6,0.4-0.8,0.7c0,0.1-0.1,0.1-0.1,0.1L124.7,152
	c-32.5-15-56.8-46.6-63.6-84.9h9.6c4,0,7.3-3.3,7.3-7.3V28.1c0-4.1-3.3-7.3-7.3-7.3H39.5c-4,0-7.3,3.3-7.3,7.3v31.7
	c0,4,3.2,7.3,7.3,7.3h7c6.6,42.4,32.5,78,67.7,96.1l-5.2,5.6c-2.2,2.4-2.6,5.9-1,8.7l23.9,42.6v21.5h-4.3c-4,0-7.3,3.3-7.3,7.4v33.3
	c0,4.1,3.2,7.4,7.3,7.4h79.8c4,0,7.3-3.3,7.3-7.4v-33.3c0-4.1-3.3-7.4-7.3-7.4h-4.3V220l23.9-42.6c1.6-2.8,1.1-6.4-1.1-8.7l-5.5-5.8
	c34.9-18.2,60.5-53.6,67.1-95.8h8.8c4,0,7.3-3.3,7.3-7.3V28.1C303.6,24,300.4,20.7,296.4,20.7z"/>
<rect x="102.6" y="249.6" class="st1" width="65.3" height="18.6"/>
<path class="st2" d="M14.2,60.5c1.3,8.5,3.5,16.8,6.3,24.6c1.8,5,8.2,6.5,12,2.8l0,0c2-2,2.6-5,1.7-7.6c-2.3-6.3-4.1-12.9-5.3-19.8
	h9.6c4,0,7.3-3.3,7.3-7.3V21.4c0-4.1-3.3-7.3-7.3-7.3H7.3c-4,0-7.3,3.3-7.3,7.3v31.7c0,4,3.3,7.3,7.4,7.3L14.2,60.5L14.2,60.5z
	 M14.5,28.7h16.8v17H14.5V28.7z"/>
<path class="st3" d="M51.6,112.2c-1.8-2.3-3.5-4.8-5.2-7.3c-2.6-3.9-8-4.6-11.3-1.3l0,0c-2.5,2.4-2.8,6.2-0.9,9.1
	c1.8,2.8,3.8,5.6,5.8,8.2c2.7,3.5,7.8,3.8,11,0.7l0,0C53.5,119.1,53.8,115.1,51.6,112.2z"/>
<path class="st2" d="M264.2,14.1h-31.3c-4,0-7.3,3.3-7.3,7.3v31.7c0,4,3.3,7.3,7.3,7.3h7.8c-6.7,38-30.7,69.5-62.9,84.6l-37.2-39.7
	c0,0-0.1,0-0.1,0c-0.4-0.4-0.9-0.8-1.4-1.1c-0.2-0.1-0.3-0.2-0.5-0.3c-0.5-0.2-0.9-0.4-1.4-0.5c-0.1,0-0.2-0.1-0.3-0.1
	c-0.5-0.1-1-0.1-1.5-0.1c-0.1,0-0.2,0-0.3,0c-0.2,0-0.4,0-0.6,0c-0.6,0.1-1.1,0.2-1.6,0.4c-0.1,0-0.1,0-0.2,0c0,0,0,0-0.1,0
	c-0.5,0.2-0.9,0.4-1.3,0.7c-0.1,0.1-0.3,0.2-0.4,0.3c-0.3,0.2-0.6,0.4-0.8,0.7c0,0.1-0.1,0.1-0.1,0.1l-37.3,39.8
	c-8.2-3.8-15.9-8.7-22.9-14.4c-2.9-2.4-7.2-2.2-9.9,0.5l0,0c-3,3-2.9,8,0.4,10.7c6.7,5.6,14,10.5,21.8,14.4l-5.2,5.6
	c-2.2,2.4-2.6,5.9-1,8.7l23.9,42.6v21.5h-4.3c-4,0-7.3,3.3-7.3,7.4v33.3c0,4.1,3.2,7.4,7.3,7.4h79.8c4,0,7.3-3.3,7.3-7.4v-33.3
	c0-4.1-3.3-7.4-7.3-7.4h-4.3v-21.5l23.9-42.6c1.6-2.8,1.1-6.4-1.1-8.7l-5.5-5.9c34.9-18.2,60.5-53.6,67.1-95.8h8.8
	c4,0,7.3-3.3,7.3-7.3V21.4C271.4,17.3,268.2,14.1,264.2,14.1z M135.6,166.3c3.9,0,7,3.2,7,7.1c0,3.9-3.1,7-7,7s-7-3.2-7-7
	S131.7,166.3,135.6,166.3z M167.9,268.2h-65.3v-18.6h65.3V268.2z M157.3,207.8c-0.6,1.1-1,2.4-1,3.6v23.5h-42.2v-23.5
	c0-1.3-0.3-2.5-0.9-3.6L91,168.2l36.9-39.4v24.2c-8.1,3.1-13.9,11-13.9,20.3c0,12,9.6,21.8,21.5,21.8s21.5-9.8,21.5-21.8
	c0-9.6-6.1-17.7-14.6-20.6v-23.9l37,39.4L157.3,207.8z M256.9,45.7h-16.8v-17h16.8V45.7z"/>
</svg>
