<?xml version="1.0" encoding="utf-8"?>
<!-- Generator: Adobe Illustrator 22.1.0, SVG Export Plug-In . SVG Version: 6.00 Build 0)  -->
<svg version="1.1" id="OBJECTS" xmlns="http://www.w3.org/2000/svg" xmlns:xlink="http://www.w3.org/1999/xlink" x="0px" y="0px"
	 viewBox="0 0 1831.2 825.2" style="enable-background:new 0 0 1831.2 825.2;" xml:space="preserve">
<style type="text/css">
	.st0{fill:#001243;}
	.st1{fill:#FE1438;}
	.st2{fill:#E2AFAE;stroke:#E2AFAE;stroke-width:36.6067;stroke-miterlimit:10;}
</style>
<title>UTLogoRediseñado2</title>
<g>
	<path class="st0" d="M175.6,234.7c0.3,0,3.1-0.3,8.3-0.8c5.2-0.5,10.2-0.8,15.1-0.8c5.9,0,11.7,0.7,17.4,2.1
		c5.7,1.4,10.8,3.6,15.1,6.8c4.3,3.1,7.9,7.4,10.7,12.8c2.8,5.4,4.2,12.2,4.2,20.6v206.2h-47.4c-8.7,0-14.2-2.3-16.4-7
		c-2.3-4.7-3.4-11.5-3.4-20.6c-5.9,8-14.9,15.4-27.1,22.1c-12.2,6.8-28.6,10.2-49.5,10.2c-24.7,0-42.9-4.9-54.7-14.6
		c-11.8-9.7-19.4-22.6-22.9-38.5c-1.7-8-2.9-16.7-3.4-26c-0.5-9.4-0.8-18.6-0.8-27.6V234.7c3.5,0,6.1-0.2,7.8-0.5
		c2.4-0.3,4.9-0.6,7.6-0.8c2.6-0.2,5.1-0.3,7.6-0.3c13.9,0,25.3,3,34.4,8.9c9,5.9,13.5,16.5,13.5,31.8v102.6c0,8,0.3,15.2,0.8,21.6
		c0.5,6.4,1.9,12,4.2,16.7c2.3,4.7,5.9,8.3,10.9,10.9c5,2.6,12.1,3.9,21.1,3.9c12.8,0,23.9-2.7,33.1-8.1
		c9.2-5.4,13.8-12.1,13.8-20.1V234.7z"/>
	<path class="st0" d="M345.4,481.5h-71.3V235.2l6.2-1c2.1-0.3,4.5-0.6,7.3-0.8c2.8-0.2,6.1-0.3,9.9-0.3c11.1,0,20.7,2,28.9,6
		c8.2,4,13.3,11,15.4,21.1c5.9-8,14.9-15.4,27.1-22.1c12.1-6.8,28.6-10.2,49.5-10.2c24.6,0,42.9,4.9,54.7,14.6
		c11.8,9.7,19.4,22.6,22.9,38.5c1.7,8,2.9,16.7,3.4,26c0.5,9.4,0.8,18.6,0.8,27.6v146.9h-70.8V337.8c0-7.6-0.3-14.8-0.8-21.4
		c-0.5-6.6-1.9-12.2-4.2-16.9c-2.3-4.7-5.9-8.3-10.9-10.9c-5-2.6-12.1-3.9-21.1-3.9c-12.8,0-23.9,2.7-33.1,8.1
		c-9.2,5.4-13.8,12.1-13.8,20.1V481.5z"/>
	<path class="st0" d="M531.3,444c-2.4-6.9-4-14.2-4.7-21.9c-0.7-7.6-1-15.3-1-22.9V157.6l7.8-1c2.4-0.3,5-0.6,7.8-0.8
		c2.8-0.2,5.5-0.3,8.3-0.3c5.5,0,11.1,0.5,16.7,1.6c5.5,1,10.6,3.1,15.1,6.2c4.5,3.1,8.2,7.4,10.9,12.8c2.8,5.4,4.2,12.4,4.2,21.1
		v36.5h72.9v53.1h-72.9v111.5c0,24.3,9.9,36.5,29.7,36.5c4.9,0,9.5-0.8,13.8-2.3c4.3-1.6,8.3-3.3,12-5.2c3.6-1.9,6.7-3.9,9.1-6
		c2.4-2.1,4.2-3.6,5.2-4.7c5.2,7.6,9.2,14.2,12,19.8c2.8,5.6,4.2,10.8,4.2,15.6c0,4.5-1.8,8.9-5.5,13.3c-3.6,4.3-8.8,8.3-15.4,12
		c-6.6,3.6-14.6,6.6-24,8.9c-9.4,2.3-19.6,3.4-30.7,3.4c-21.9,0-38.7-4.2-50.5-12.5C544.5,468.5,536.2,457.6,531.3,444z"/>
</g>
<g>
	<path class="st1" d="M1382.2,807.4h-44.1l-33.7-90.3l-38.7,90.3h-40l-72.8-195.2c5-1.7,10.2-3,15.6-4c5.4-1,10.1-1.5,13.9-1.5
		c8.6,0,15.9,1.8,21.8,5.4c6,3.6,10.5,9.7,13.5,18.3l37.5,112.4l27.9-67.8l-20-63.7c5.3-1.7,10.2-2.8,14.8-3.5c4.6-0.7,9.1-1,13.5-1
		c7.2,0,13.4,1.8,18.5,5.4c5.1,3.6,8.9,9.4,11.4,17.5l35.8,109l27-94.1c3.3-12.5,7.6-21.9,12.9-28.3c5.3-6.4,13.2-9.6,23.7-9.6
		c5.5,0,10.6,0.5,15.2,1.5c4.6,1,9.1,2.3,13.5,4L1382.2,807.4z"/>
	<path class="st1" d="M1547,769.9c6.9,0,13-0.8,18.3-2.3c5.3-1.5,10-3.4,14.1-5.6c4.2-2.2,7.8-4.6,10.8-7.3c3-2.6,5.8-5.1,8.3-7.3
		c3.3,4.2,6.8,9.5,10.4,16c3.6,6.5,5.4,11.9,5.4,16c0,6.1-3.5,11.7-10.4,16.6c-5.8,4.4-14.1,8.3-24.8,11.4
		c-10.7,3.2-23.2,4.8-37.7,4.8c-13,0-25.9-1.7-38.5-5c-12.6-3.3-23.9-9.2-33.7-17.5c-9.9-8.3-17.8-19.5-23.9-33.5
		c-6.1-14-9.2-31.7-9.2-53.1c0-17.5,2.7-32.5,8.1-45.2c5.4-12.6,12.6-23.1,21.6-31.4c9-8.3,19.2-14.4,30.6-18.3
		c11.4-3.9,23-5.8,35-5.8c15.5,0,28.7,2.4,39.5,7.3c10.8,4.9,19.6,11.4,26.4,19.6c6.8,8.2,11.7,17.5,14.8,28.1
		c3,10.5,4.6,21.6,4.6,33.3c0,1.7,0,3.6,0,5.8c0,2.2-0.1,4.6-0.2,7.1c-0.1,2.5-0.3,4.9-0.4,7.3c-0.1,2.4-0.4,4.2-0.6,5.6h-122.3
		c1.1,15.3,5.8,28,14.1,38.1C1515.8,764.8,1528.9,769.9,1547,769.9z M1565.7,685.4c0-13.3-2.6-24.1-7.7-32.5
		c-5.1-8.3-14.4-12.5-27.7-12.5c-11.7,0-20.8,4-27.5,11.9c-6.7,7.9-10,18.9-10,33.1H1565.7z"/>
	<path class="st1" d="M1683.9,620.9c4.2-4.2,10.3-8.3,18.3-12.3c8-4,18.4-6,31.2-6c10.8,0,21.2,1.6,31,4.8
		c9.8,3.2,18.6,8.7,26.2,16.4c7.6,7.8,13.7,18,18.3,30.6c4.6,12.6,6.9,28.4,6.9,47.2c0,21.6-2.5,39.5-7.5,53.7
		c-5,14.1-11.4,25.3-19.4,33.5c-7.9,8.2-16.8,13.9-26.6,17.3c-9.9,3.3-19.8,5-29.8,5c-8.9,0-16.6-1-23.1-3.1
		c-6.5-2.1-11.9-4.4-16.2-6.9c-4.3-2.5-7.6-4.9-10-7.3c-2.4-2.4-3.8-4-4.4-4.8c0,4.4-1.1,8.3-3.3,11.4c-2.2,3.2-6.1,4.8-11.7,4.8
		h-36.6V511.9c0-0.3,2.1-0.6,6.2-1s8.5-0.6,12.9-0.6c4.4,0,8.9,0.4,13.5,1.2c4.6,0.8,8.6,2.5,12.1,5c3.5,2.5,6.3,5.9,8.5,10.2
		c2.2,4.3,3.3,9.9,3.3,16.9V620.9z M1756.7,702.5c0-8.6-0.7-16.6-2.1-23.9c-1.4-7.3-3.7-13.7-6.9-18.9c-3.2-5.3-7.5-9.4-12.9-12.5
		c-5.4-3-12-4.6-19.8-4.6c-11.7,0-19.8,2.2-24.3,6.7c-4.6,4.4-6.9,9.4-6.9,15v90.3c2.2,2.2,6.2,4.9,11.9,8.1
		c5.7,3.2,12.8,4.8,21.4,4.8c14.1,0,24.3-5.6,30.4-16.9C1753.7,739.3,1756.7,723.3,1756.7,702.5z"/>
</g>
<g>
	<path class="st0" d="M1250.2,559.9V458.1c-5.2,6.2-13,12-23.4,17.2c-10.4,5.2-23.4,7.8-39.1,7.8c-13.9,0-27-2.2-39.3-6.5
		c-12.3-4.3-23.2-11.5-32.5-21.4c-9.4-9.9-16.8-22.8-22.1-38.8c-5.4-16-8.1-35.6-8.1-58.9c0-25.7,3.1-47.1,9.4-64.3
		c6.2-17.2,14.4-31,24.5-41.4c10.1-10.4,21.3-17.8,33.6-22.1c12.3-4.3,24.7-6.5,37.2-6.5c9.4,0,17.8,1.2,25.3,3.6
		c7.5,2.4,13.9,5.2,19.3,8.3c5.4,3.1,9.6,6.3,12.8,9.6c3.1,3.3,5.2,6,6.2,8.1c2.4-8,7.5-14.1,15.1-18.2c7.6-4.2,16.5-6.2,26.6-6.2
		c3.1,0,6.2,0.1,9.1,0.3c2.9,0.2,5.6,0.4,8.1,0.8l7.8,1v329.4 M1158.5,355c0,24,4,43.1,12,57.3c8,14.2,21.9,21.4,41.7,21.4
		c11.1,0,20.1-2.2,27.1-6.5c6.9-4.3,10.4-9.8,10.4-16.4V292c-2.8-2.8-7.6-6-14.3-9.6c-6.8-3.6-14.7-5.5-23.7-5.5
		c-18.1,0-31.4,6.8-40.1,20.3C1162.8,310.7,1158.5,330,1158.5,355z"/>
	<path class="st0" d="M1503.8,230c0.3,0,3.1-0.3,8.3-0.8c5.2-0.5,10.2-0.8,15.1-0.8c5.9,0,11.7,0.7,17.4,2.1
		c5.7,1.4,10.8,3.6,15.1,6.8c4.3,3.1,7.9,7.4,10.7,12.8c2.8,5.4,4.2,12.2,4.2,20.6v206.2h-47.4c-8.7,0-14.2-2.3-16.4-7
		c-2.3-4.7-3.4-11.5-3.4-20.6c-5.9,8-14.9,15.4-27.1,22.1c-12.2,6.8-28.6,10.2-49.5,10.2c-24.7,0-42.9-4.9-54.7-14.6
		c-11.8-9.7-19.4-22.6-22.9-38.5c-1.7-8-2.9-16.7-3.4-26c-0.5-9.4-0.8-18.6-0.8-27.6V230c3.5,0,6.1-0.2,7.8-0.5
		c2.4-0.3,4.9-0.6,7.6-0.8c2.6-0.2,5.1-0.3,7.6-0.3c13.9,0,25.3,3,34.4,8.9c9,5.9,13.5,16.5,13.5,31.8v102.6c0,8,0.3,15.2,0.8,21.6
		c0.5,6.4,1.9,12,4.2,16.7c2.3,4.7,5.9,8.3,10.9,10.9c5,2.6,12.1,3.9,21.1,3.9c12.8,0,23.9-2.7,33.1-8.1
		c9.2-5.4,13.8-12.1,13.8-20.1V230z"/>
	<path class="st0" d="M1730.3,432.6c8.7,0,16.3-1,22.9-2.9c6.6-1.9,12.5-4.2,17.7-7c5.2-2.8,9.7-5.8,13.5-9.1
		c3.8-3.3,7.3-6.3,10.4-9.1c4.2,5.2,8.5,11.9,13,20.1c4.5,8.2,6.8,14.8,6.8,20.1c0,7.6-4.3,14.6-13,20.8c-7.3,5.6-17.6,10.3-31,14.3
		c-13.4,4-29.1,6-47.1,6c-16.3,0-32.4-2.1-48.2-6.2c-15.8-4.2-29.9-11.5-42.2-21.9c-12.3-10.4-22.3-24.4-29.9-41.9
		c-7.6-17.5-11.5-39.7-11.5-66.4c0-21.9,3.4-40.7,10.2-56.5c6.8-15.8,15.8-28.9,27.1-39.3c11.3-10.4,24-18,38.3-22.9
		c14.2-4.9,28.8-7.3,43.7-7.3c19.4,0,35.9,3,49.5,9.1c13.5,6.1,24.6,14.2,33.1,24.5c8.5,10.2,14.7,22,18.5,35.2
		c3.8,13.2,5.7,27.1,5.7,41.7c0,2.1,0,4.5,0,7.3c0,2.8-0.1,5.7-0.3,8.9c-0.2,3.1-0.3,6.2-0.5,9.1c-0.2,3-0.4,5.3-0.8,7h-153.1
		c1.4,19.1,7.3,35,17.7,47.7C1691.3,426.2,1707.7,432.6,1730.3,432.6z M1753.8,326.9c0-16.7-3.2-30.2-9.6-40.6
		c-6.4-10.4-18-15.6-34.6-15.6c-14.6,0-26,4.9-34.4,14.8c-8.3,9.9-12.5,23.7-12.5,41.4H1753.8z"/>
</g>
<path class="st1" d="M773.6,498.3c5.4-4.4,8.2-11.1,12.6-16.4l0.5-0.5c-72.6-49.8-93.5-147.9-47.3-222.9c3.2-5.4,1.5-12.4-3.8-15.8
	c-5.5-3.6-12.8-2-16.4,3.4c-52.5,85.3-29.3,196.8,53,254C772.5,499.4,773,498.8,773.6,498.3z"/>
<path class="st1" d="M790,483.6c-1.6-1.1-3.3-2.1-4.9-3.3l-0.3,0.3c-1.2,2.6-2.8,5-4.7,7.2c-2.4,2.9-5.9,5.7-6.8,9.5
	c-0.2,1.1-0.7,2.1-1.4,2.9c1.8,1.3,3.5,2.4,5.3,3.5c5.7,3.2,13,1.2,16.2-4.5C796.5,493.9,795,487.1,790,483.6z"/>
<path class="st1" d="M880.4,156.1c-40.7-0.1-80.4,13.1-113,37.5c-0.2,0.1-0.4,0.2-0.5,0.4c-5.1,4-6,11.4-2,16.5c4,5.1,11.4,6,16.5,2
	c28.5-21.3,63.2-32.8,98.8-32.7c91.1,0,165.4,74.2,165.4,165.4c0,89.1-71.1,162.1-159.4,165.2l2.4,2.4c4.3,2.4,7.8,5.9,10.1,10.2
	c0.8,0.9,1.5,1.8,2.3,2.8c1.7,1.9,2.2,4.7,1.3,7.1c93.9-11,167.1-91.1,167.1-187.8C1069.3,241,984.6,156.1,880.4,156.1z"/>
<path class="st2" d="M883.6,245.9c-56.7,0-102.7,45.9-102.8,102.6c0,33.9,16.7,65.7,44.7,84.8c2.4-4,5-7.8,6.8-12.2
	c0.6-1.5,1.3-3,1.9-4.4c-37.7-27.2-46.3-79.8-19.1-117.6s79.8-46.3,117.6-19.1c37.7,27.2,46.3,79.8,19.1,117.6
	c-8.8,12.2-20.6,21.8-34.4,27.9c0.3,5.3-1.8,10.2-4,14.9c-0.8,1.5-2.2,2.6-3.9,2.9c-0.4,0.8-0.8,1.4-1.1,2.1l0,0
	c0,1.1-0.3,2.2-0.9,3.2c55.2-13.2,89.2-68.6,76.1-123.7C972.5,278.5,931.2,245.9,883.6,245.9z"/>
<path class="st1" d="M880.2,215.2c-71.8,0.1-130,58.3-129.9,130.1c0,52.1,31.2,99.2,79.2,119.6c1.8-8.5,4.2-16.2,10.5-21.3
	c-54.3-22.2-80.3-84.3-58.1-138.6c22.2-54.3,84.3-80.3,138.6-58.1c54.3,22.2,80.3,84.3,58.1,138.6c-15.7,38.4-52.4,64.1-93.8,65.9
	c0.1,1.8-0.6,3.6-1.9,4.8c-3.9,3.9-2.5,8.8-3,13.9c-0.1,1.7-0.5,3.4-1,5h1.4c71.8,2.2,131.8-54.1,134-125.9s-54.1-131.8-125.9-134
	C885.6,215.1,882.9,215.1,880.2,215.2L880.2,215.2z"/>
<path class="st1" d="M880.2,274.3c-39.1,0-70.9,31.7-70.9,70.8c0,29.4,18.1,55.8,45.6,66.3c0.2-1.3,0.8-2.5,1.8-3.4
	c1.4-1.5,3.1-2.7,4.9-3.7c0.6-0.6,1.4-1,2.1-1.3c2.3-0.9,4.7-1.6,7.2-1.9c4.2-0.7,8.5-0.7,12.6,0.1c7.3,1.5,12,6.8,11.6,13
	c38.2-8.1,62.7-45.7,54.5-83.9C942.7,297.6,913.7,274.2,880.2,274.3L880.2,274.3z M880,392.4c-26.1,0-47.2-21.2-47.2-47.3
	c0-26.1,21.2-47.2,47.3-47.2s47.2,21.2,47.2,47.3C927.2,371.3,906.1,392.4,880,392.4z"/>
<path class="st0" d="M991.6,576.4c-6.2-3-13.1-4.3-19.9-3.8c3.5-21.3-10.8-41.4-32.1-44.9c0,0-0.1,0-0.1,0c-6.8-1.1-13.8-0.4-20.3,2
	c-5.2-16.8-20.8-28.1-38.4-27.6l32.1-65.8c9.5-19.5,1.4-42.9-18.1-52.4c-19.5-9.5-42.9-1.4-52.4,18.1l0,0L818,452
	c-2.4,5.3,0,11.6,5.4,14c5.1,2.3,11.1,0.2,13.7-4.8l24.4-50.1c4.6-8.8,15.5-12.2,24.3-7.6c8.5,4.4,12,14.7,8,23.4l-77.5,159.2
	c-2.4,5.3,0,11.6,5.4,14c5.1,2.3,11.1,0.2,13.7-4.8l30.3-62.2c4.6-8.8,15.5-12.2,24.3-7.6c8.5,4.4,12,14.7,8,23.4l-4.4,9.2l-25.9,53
	c-2.4,5.3,0,11.6,5.4,14c5.1,2.3,11.1,0.2,13.7-4.8l25.9-53l4.4-9.2c4.6-8.8,15.5-12.2,24.3-7.6c8.5,4.4,12,14.7,8,23.4l-10,20.4
	l-8,16.4L919,636.1c-2.4,5.3,0,11.6,5.4,14c5.1,2.3,11.1,0.2,13.7-4.8l12.4-25.4l8-16.4c4.1-9,14.8-13,23.9-8.8
	c9,4.1,13,14.8,8.8,23.9c-0.1,0.2-0.2,0.4-0.4,0.6l-48.5,99.5c-3.4,7.1-7.5,13.8-12.1,20.2c-3.5,4.7-2.4,11.3,2.3,14.8
	c4.7,3.5,11.3,2.4,14.8-2.3l0,0c5.4-7.4,10.2-15.2,14.1-23.5l48.5-99.5C1019.1,609,1011,585.7,991.6,576.4
	C991.6,576.4,991.6,576.4,991.6,576.4L991.6,576.4z"/>
<path class="st1" d="M876.7,793.1c-1.7-5.6-7.6-8.7-13.2-7c0,0-0.1,0-0.1,0c-68.6,20.9-141.1-17.6-162.2-86.1
	c-3.8-12.5-5.7-25.5-5.7-38.5l0.4-112.1c0-10.7,8.6-19.4,19.3-19.4c10,0,18.4,7.6,19.3,17.6l6.2,65.9c0.5,5.8,5.7,10.1,11.5,9.6
	c3.7-0.3,6.9-2.6,8.6-5.9l45.4-93.2c2.7-5.2,0.7-11.6-4.5-14.3c-5.2-2.7-11.6-0.7-14.3,4.5c-0.1,0.2-0.2,0.4-0.3,0.6l0,0l-28.9,59.3
	l-2.7-28.4c-2.1-22.3-21.9-38.7-44.1-36.6c-20.8,1.9-36.7,19.4-36.8,40.2l-0.4,112.1C674.1,745,741.5,812.8,824.9,813c0,0,0,0,0.1,0
	c15.1,0,30.2-2.2,44.7-6.6C875.3,804.8,878.4,798.8,876.7,793.1C876.7,793.2,876.7,793.1,876.7,793.1z"/>
<path class="st1" d="M917.1,772.9c-1.9-5.6-8-8.6-13.6-6.7c-5.6,1.9-8.6,8-6.7,13.6c1.9,5.6,8,8.6,13.6,6.7c2.7-0.9,5-2.9,6.2-5.5
	C917.8,778.4,917.9,775.6,917.1,772.9z"/>
<path class="st0" d="M821.7,485.6c-1.9-5.6-8-8.6-13.6-6.7c-5.6,1.9-8.6,8-6.7,13.6c1.9,5.6,8,8.6,13.6,6.7c2.7-0.9,5-2.9,6.2-5.5
	C822.4,491.2,822.6,488.3,821.7,485.6z"/>
<path class="st1" d="M876.1,18.7c-7.8,0-14.1,6.3-14.1,14.1c0,0,0,0,0,0.1l0,0v87.1c-0.2,7.8,6,14.3,13.8,14.5
	c7.8,0.2,14.3-6,14.5-13.8v-88C890.2,24.9,883.8,18.6,876.1,18.7z"/>
<path class="st0" d="M771.6,123.7l-41.2-41.2c-5.2-5.8-14.1-6.3-19.9-1c-5.8,5.2-6.3,14.1-1,19.9c0.2,0.2,0.3,0.4,0.5,0.6l0.5,0.5
	l41.2,41.2c5.7,5.3,14.6,5,19.9-0.7C776.6,137.5,776.6,129.1,771.6,123.7L771.6,123.7z"/>
<path class="st0" d="M1044.2,79c-4.2-5.3-11.9-6.1-17.2-1.9c-0.8,0.5-1.4,1.1-1.9,1.9l-39.3,45.6c-5.3,6.4-5.3,15.7,0,22.1
	c4.2,5.3,11.9,6.1,17.2,1.9c0.7-0.5,1.4-1.2,1.9-1.9l39.3-45.6C1049.4,94.6,1049.4,85.5,1044.2,79z"/>
</svg>
